<?xml version="1.0" standalone="no"?><!DOCTYPE svg PUBLIC "-//W3C//DTD SVG 1.1//EN" "http://www.w3.org/Graphics/SVG/1.1/DTD/svg11.dtd"><svg t="1717465430246" class="icon" viewBox="0 0 1024 1024" version="1.1" xmlns="http://www.w3.org/2000/svg" p-id="5961" width="16" height="16" xmlns:xlink="http://www.w3.org/1999/xlink"><path d="M96 160h274.745a32 32 0 0 1 22.628 9.373l109.254 109.254A32 32 0 0 0 525.255 288H928c17.673 0 32 14.327 32 32v512c0 17.673-14.327 32-32 32H96c-17.673 0-32-14.327-32-32V192c0-17.673 14.327-32 32-32z m296 464a8 8 0 0 0-8 8v48a8 8 0 0 0 8 8h240a8 8 0 0 0 8-8v-48a8 8 0 0 0-8-8H392z" fill="#5090F1" p-id="5962"></path></svg>