<?xml version="1.0" standalone="no"?><!DOCTYPE svg PUBLIC "-//W3C//DTD SVG 1.1//EN" "http://www.w3.org/Graphics/SVG/1.1/DTD/svg11.dtd"><svg height="171" node-id="1" sillyvg="true" template-height="171" template-width="242" version="1.1" viewBox="0 0 242 171" width="242" xmlns="http://www.w3.org/2000/svg" xmlns:xlink="http://www.w3.org/1999/xlink"><defs node-id="38"><mask height="8.814804" id="mask-2" maskUnits="userSpaceOnUse" node-id="11" width="223.09741" x="32.716717" y="146.7037"><path d="M 212.50 151.10 L 212.20 151.60 L 210.60 152.20 L 206.50 152.90 L 190.20 154.50 L 166.00 155.50 L 136.40 155.80 L 106.70 155.50 L 82.50 154.50 L 66.20 152.90 L 62.10 152.20 L 60.60 151.60 L 60.20 151.10 L 60.60 150.70 L 62.10 150.10 L 66.20 149.30 L 82.50 147.80 L 106.70 146.80 L 136.40 146.40 L 166.00 146.80 L 190.20 147.80 L 206.50 149.30 L 210.60 150.10 L 212.20 150.70 L 212.50 151.10 Z" fill="#ffffff" fill-rule="evenodd" node-id="43" stroke="none" target-height="9.400009" target-width="152.3" target-x="60.2" target-y="146.4"></path></mask></defs><g node-id="64"><g node-id="65"><g node-id="66"><path d="M 37.50 8.90 L 39.90 9.50 L 41.60 11.30 L 42.10 12.40 L 42.30 49.70 L 42.50 51.00 L 43.70 53.10 L 45.80 54.30 L 47.10 54.50 L 49.50 53.90 L 51.20 52.10 L 51.90 49.70 L 52.10 30.40 L 53.30 28.30 L 55.40 27.10 L 58.00 27.10 L 59.10 27.60 L 60.80 29.30 L 61.40 31.80 L 61.60 41.60 L 62.80 43.70 L 64.90 44.90 L 66.20 45.10 L 67.50 44.90 L 69.60 43.70 L 70.80 41.60 L 71.00 40.20 L 71.20 17.20 L 72.40 15.10 L 74.50 13.90 L 75.80 13.70 L 78.20 14.40 L 79.90 16.10 L 80.40 17.20 L 80.60 46.50 L 40.20 66.20 L 39.00 67.20 L 38.20 68.40 L 37.90 69.90 L 38.40 71.60 L 61.40 118.90 L 61.40 121.70 L 60.80 124.20 L 59.10 125.90 L 56.70 126.60 L 54.20 125.90 L 52.50 124.20 L 51.90 121.70 L 51.70 104.60 L 51.20 103.50 L 49.50 101.70 L 47.10 101.10 L 45.80 101.30 L 43.70 102.50 L 42.50 104.60 L 42.30 112.10 L 41.60 114.50 L 39.90 116.30 L 38.80 116.70 L 36.20 116.70 L 34.10 115.50 L 32.90 113.40 L 32.50 109.70 L 32.10 108.60 L 30.40 106.80 L 27.90 106.20 L 26.60 106.30 L 24.60 107.60 L 23.30 109.70 L 23.20 111.00 L 23.00 130.50 L 22.50 131.60 L 20.80 133.30 L 18.40 134.00 L 17.10 133.80 L 15.00 132.60 L 13.80 130.50 L 13.60 129.10 L 13.80 36.60 L 14.20 35.50 L 16.00 33.80 L 18.40 33.10 L 19.70 33.30 L 20.80 33.80 L 22.50 35.50 L 23.00 36.60 L 23.30 40.90 L 24.60 43.00 L 26.60 44.20 L 27.90 44.40 L 29.20 44.20 L 31.30 43.00 L 32.50 40.90 L 32.70 39.60 L 32.90 12.40 L 33.40 11.30 L 35.10 9.50 L 37.50 8.90 Z M 210.40 8.90 L 212.80 9.50 L 214.50 11.10 L 215.00 12.20 L 215.20 13.70 L 215.20 39.60 L 215.40 40.90 L 216.60 43.00 L 218.70 44.20 L 220.00 44.40 L 221.20 44.30 L 223.30 43.10 L 224.50 41.10 L 225.00 36.60 L 225.40 35.50 L 227.10 33.80 L 228.30 33.30 L 229.60 33.10 L 231.90 33.70 L 233.60 35.40 L 234.10 36.50 L 234.30 38.00 L 234.30 108.10 L 233.70 110.60 L 232.00 112.30 L 230.90 112.80 L 228.30 112.80 L 227.20 112.40 L 225.50 110.70 L 224.80 108.40 L 224.60 102.70 L 223.40 100.60 L 221.30 99.40 L 218.70 99.40 L 216.70 100.60 L 215.40 102.60 L 215.00 106.50 L 214.50 107.60 L 212.80 109.30 L 210.40 110.00 L 209.20 109.80 L 208.10 109.40 L 206.50 107.90 L 205.60 102.50 L 205.40 97.50 L 203.90 95.20 L 202.70 94.50 L 199.60 89.50 L 209.80 84.60 L 211.00 83.60 L 211.80 82.40 L 212.00 80.90 L 211.70 79.40 L 186.50 27.70 L 186.70 25.90 L 187.90 23.80 L 190.00 22.50 L 192.50 22.50 L 194.60 23.70 L 195.80 25.70 L 196.20 32.70 L 197.40 34.80 L 199.50 36.10 L 200.80 36.20 L 202.10 36.10 L 204.10 34.90 L 205.40 32.90 L 205.60 31.60 L 205.80 12.40 L 206.30 11.30 L 208.00 9.50 L 210.40 8.90 Z M 28.40 53.50 L 27.00 53.70 L 24.90 54.90 L 23.60 57.00 L 23.40 58.30 L 23.40 85.10 L 24.10 87.50 L 25.90 89.20 L 27.00 89.70 L 28.40 89.80 L 30.80 89.20 L 32.60 87.50 L 33.30 85.10 L 33.10 57.00 L 32.60 55.90 L 30.80 54.20 L 28.40 53.50 Z M 221.50 58.50 L 220.20 58.70 L 218.00 59.90 L 216.80 61.90 L 216.60 63.20 L 216.80 86.00 L 217.30 87.10 L 219.00 88.80 L 221.50 89.50 L 222.90 89.30 L 225.00 88.10 L 226.30 86.00 L 226.50 84.70 L 226.30 61.90 L 225.80 60.80 L 224.00 59.10 L 221.50 58.50 Z M 95.20 31.40 L 96.50 31.60 L 98.60 32.70 L 99.80 34.80 L 100.00 37.00 L 90.40 41.70 L 90.40 36.20 L 91.10 33.90 L 92.70 32.10 L 95.20 31.40 Z M 114.40 22.30 L 115.60 22.50 L 117.70 23.70 L 118.90 25.70 L 119.20 27.70 L 109.60 32.40 L 109.60 27.20 L 110.20 24.80 L 111.90 23.10 L 114.40 22.30 Z M 133.50 8.90 L 135.90 9.50 L 137.60 11.10 L 138.30 13.50 L 138.30 18.40 L 128.70 23.00 L 128.90 12.40 L 129.40 11.30 L 131.00 9.60 L 133.50 8.90 Z" fill="#a3b1bf" fill-opacity="0.102004275" fill-rule="nonzero" group-id="1,2,3" id="Combined-Shape" node-id="9" stroke="none" target-height="125.1" target-width="220.7" target-x="13.6" target-y="8.9"></path></g><g node-id="67"><g node-id="72"><path d="M 212.50 151.10 L 212.20 151.60 L 210.60 152.20 L 206.50 152.90 L 190.20 154.50 L 166.00 155.50 L 136.40 155.80 L 106.70 155.50 L 82.50 154.50 L 66.20 152.90 L 62.10 152.20 L 60.60 151.60 L 60.20 151.10 L 60.60 150.70 L 62.10 150.10 L 66.20 149.30 L 82.50 147.80 L 106.70 146.80 L 136.40 146.40 L 166.00 146.80 L 190.20 147.80 L 206.50 149.30 L 210.60 150.10 L 212.20 150.70 L 212.50 151.10 Z" fill="#a3b1bf" fill-opacity="0.24851656" fill-rule="nonzero" group-id="1,2,4,9" node-id="57" stroke="none" target-height="9.400009" target-width="152.3" target-x="60.2" target-y="146.4"></path></g><path d="M 108.70 153.70 L 110.50 154.10 L 110.50 154.40 L 110.10 154.60 L 108.70 154.80 L 106.80 154.40 L 106.80 154.10 L 107.30 153.90 L 108.70 153.70 Z M 168.00 153.70 L 169.90 154.10 L 169.90 154.40 L 169.40 154.60 L 168.00 154.80 L 166.10 154.40 L 166.10 154.10 L 166.60 153.90 L 168.00 153.70 Z M 210.50 153.70 L 212.40 154.10 L 212.40 154.40 L 211.90 154.60 L 210.50 154.80 L 208.70 154.40 L 208.70 154.10 L 209.10 153.90 L 210.50 153.70 Z M 116.60 153.70 L 118.40 154.10 L 118.40 154.40 L 118.00 154.60 L 116.60 154.80 L 114.70 154.40 L 114.70 154.10 L 115.20 153.90 L 116.60 153.70 Z M 175.90 153.70 L 177.80 154.10 L 177.80 154.40 L 177.30 154.60 L 175.90 154.80 L 174.10 154.40 L 174.10 154.10 L 174.50 153.90 L 175.90 153.70 Z M 218.40 153.70 L 220.30 154.10 L 220.30 154.40 L 219.80 154.60 L 218.40 154.80 L 216.60 154.40 L 216.60 154.10 L 217.00 153.90 L 218.40 153.70 Z M 99.80 153.70 L 101.60 154.10 L 101.60 154.40 L 101.20 154.60 L 99.80 154.80 L 97.90 154.40 L 97.90 154.10 L 98.40 153.90 L 99.80 153.70 Z M 159.10 153.70 L 161.00 154.10 L 161.00 154.40 L 160.50 154.60 L 159.10 154.80 L 157.20 154.40 L 157.20 154.10 L 157.70 153.90 L 159.10 153.70 Z M 201.60 153.70 L 203.50 154.10 L 203.50 154.40 L 203.00 154.60 L 201.60 154.80 L 199.80 154.40 L 199.80 154.10 L 200.20 153.90 L 201.60 153.70 Z M 91.90 153.70 L 93.70 154.10 L 93.70 154.40 L 93.30 154.60 L 91.90 154.80 L 90.00 154.40 L 90.00 154.10 L 90.50 153.90 L 91.90 153.70 Z M 151.20 153.70 L 153.00 154.10 L 153.00 154.40 L 152.60 154.60 L 151.20 154.80 L 149.30 154.40 L 149.30 154.10 L 149.80 153.90 L 151.20 153.70 Z M 193.70 153.70 L 195.60 154.10 L 195.60 154.40 L 195.10 154.60 L 193.70 154.80 L 191.90 154.40 L 191.90 154.10 L 192.30 153.90 L 193.70 153.70 Z M 83.00 153.70 L 84.80 154.10 L 84.80 154.40 L 84.40 154.60 L 83.00 154.80 L 81.10 154.40 L 81.10 154.10 L 81.60 153.90 L 83.00 153.70 Z M 142.30 153.70 L 144.10 154.10 L 144.10 154.40 L 143.70 154.60 L 142.30 154.80 L 140.40 154.40 L 140.40 154.10 L 140.90 153.90 L 142.30 153.70 Z M 184.80 153.70 L 186.70 154.10 L 186.70 154.40 L 186.20 154.60 L 184.80 154.80 L 183.00 154.40 L 183.00 154.10 L 183.40 153.90 L 184.80 153.70 Z M 75.00 153.70 L 76.90 154.10 L 76.90 154.40 L 76.40 154.60 L 75.00 154.80 L 73.20 154.40 L 73.20 154.10 L 73.60 153.90 L 75.00 153.70 Z M 134.40 153.70 L 136.20 154.10 L 136.20 154.40 L 135.80 154.60 L 134.40 154.80 L 132.50 154.40 L 132.50 154.10 L 133.00 153.90 L 134.40 153.70 Z M 66.10 153.70 L 68.00 154.10 L 68.00 154.40 L 67.50 154.60 L 66.10 154.80 L 64.30 154.40 L 64.30 154.10 L 64.70 153.90 L 66.10 153.70 Z M 125.50 153.70 L 127.30 154.10 L 127.30 154.40 L 126.90 154.60 L 125.50 154.80 L 123.60 154.40 L 123.60 154.10 L 124.10 153.90 L 125.50 153.70 Z M 58.20 153.70 L 60.10 154.10 L 60.10 154.40 L 59.60 154.60 L 58.20 154.80 L 56.40 154.40 L 56.40 154.10 L 56.80 153.90 L 58.20 153.70 Z M 217.40 150.60 L 219.30 150.90 L 219.30 151.30 L 218.80 151.50 L 217.40 151.60 L 215.60 151.30 L 215.60 150.90 L 216.00 150.70 L 217.40 150.60 Z M 200.60 150.60 L 202.50 150.90 L 202.50 151.30 L 202.00 151.50 L 200.60 151.60 L 198.80 151.30 L 198.80 150.90 L 199.20 150.70 L 200.60 150.60 Z M 174.90 150.60 L 176.80 150.90 L 176.80 151.30 L 176.30 151.50 L 174.90 151.60 L 173.10 151.30 L 173.10 150.90 L 173.50 150.70 L 174.90 150.60 Z M 209.50 150.60 L 211.40 150.90 L 211.40 151.30 L 210.90 151.50 L 209.50 151.60 L 207.70 151.30 L 207.70 150.90 L 208.10 150.70 L 209.50 150.60 Z M 191.70 150.60 L 193.60 150.90 L 193.60 151.30 L 193.10 151.50 L 191.70 151.60 L 189.90 151.30 L 189.90 150.90 L 190.30 150.70 L 191.70 150.60 Z M 226.30 150.60 L 228.20 150.90 L 228.20 151.30 L 227.70 151.50 L 226.30 151.60 L 224.50 151.30 L 224.50 150.90 L 224.90 150.70 L 226.30 150.60 Z M 104.70 150.60 L 106.60 150.90 L 106.60 151.30 L 106.10 151.50 L 104.70 151.60 L 102.80 151.30 L 102.80 150.90 L 103.30 150.70 L 104.70 150.60 Z M 87.90 150.60 L 89.80 150.90 L 89.80 151.30 L 89.30 151.50 L 87.90 151.60 L 86.00 151.30 L 86.00 150.90 L 86.50 150.70 L 87.90 150.60 Z M 166.00 150.60 L 167.90 150.90 L 167.90 151.30 L 167.40 151.50 L 166.00 151.60 L 164.20 151.30 L 164.20 150.90 L 164.60 150.70 L 166.00 150.60 Z M 182.80 150.60 L 184.70 150.90 L 184.70 151.30 L 184.20 151.50 L 182.80 151.60 L 181.00 151.30 L 181.00 150.90 L 181.40 150.70 L 182.80 150.60 Z M 122.50 150.60 L 124.40 150.90 L 124.40 151.30 L 123.90 151.50 L 122.50 151.60 L 120.60 151.30 L 120.60 150.90 L 121.10 150.70 L 122.50 150.60 Z M 80.00 150.60 L 81.80 150.90 L 81.80 151.30 L 81.40 151.50 L 80.00 151.60 L 78.10 151.30 L 78.10 150.90 L 78.60 150.70 L 80.00 150.60 Z M 158.10 150.60 L 160.00 150.90 L 160.00 151.30 L 159.50 151.50 L 158.10 151.60 L 156.30 151.30 L 156.30 150.90 L 156.70 150.70 L 158.10 150.60 Z M 235.20 150.60 L 237.10 150.90 L 237.10 151.30 L 236.60 151.50 L 235.20 151.60 L 233.40 151.30 L 233.40 150.90 L 233.80 150.70 L 235.20 150.60 Z M 113.60 150.60 L 115.50 150.90 L 115.50 151.30 L 115.00 151.50 L 113.60 151.60 L 111.70 151.30 L 111.70 150.90 L 112.20 150.70 L 113.60 150.60 Z M 71.10 150.60 L 72.90 150.90 L 72.90 151.30 L 72.50 151.50 L 71.10 151.60 L 69.20 151.30 L 69.20 150.90 L 69.70 150.70 L 71.10 150.60 Z M 149.20 150.60 L 151.10 150.90 L 151.10 151.30 L 150.60 151.50 L 149.20 151.60 L 147.40 151.30 L 147.40 150.90 L 147.80 150.70 L 149.20 150.60 Z M 96.80 150.60 L 98.70 150.90 L 98.70 151.30 L 98.20 151.50 L 96.80 151.60 L 94.90 151.30 L 94.90 150.90 L 95.40 150.70 L 96.80 150.60 Z M 62.20 150.60 L 64.00 150.90 L 64.00 151.30 L 63.60 151.50 L 62.20 151.60 L 60.30 151.30 L 60.30 150.90 L 60.80 150.70 L 62.20 150.60 Z M 141.30 150.60 L 143.20 150.90 L 143.20 151.30 L 142.70 151.50 L 141.30 151.60 L 139.40 151.30 L 139.40 150.90 L 139.90 150.70 L 141.30 150.60 Z M 53.30 150.60 L 55.10 150.90 L 55.10 151.30 L 54.70 151.50 L 53.30 151.60 L 51.40 151.30 L 51.40 150.90 L 51.90 150.70 L 53.30 150.60 Z M 131.40 150.60 L 133.30 150.90 L 133.30 151.30 L 132.80 151.50 L 131.40 151.60 L 129.50 151.30 L 129.50 150.90 L 130.00 150.70 L 131.40 150.60 Z M 187.80 147.40 L 189.60 147.80 L 189.60 148.10 L 189.20 148.30 L 187.80 148.50 L 185.90 148.10 L 185.90 147.80 L 186.40 147.60 L 187.80 147.40 Z M 117.60 147.40 L 119.40 147.80 L 119.40 148.10 L 119.00 148.30 L 117.60 148.50 L 115.70 148.10 L 115.70 147.80 L 116.20 147.60 L 117.60 147.40 Z M 170.00 147.40 L 171.80 147.80 L 171.80 148.10 L 171.40 148.30 L 170.00 148.50 L 168.10 148.10 L 168.10 147.80 L 168.60 147.60 L 170.00 147.40 Z M 91.90 147.40 L 93.70 147.80 L 93.70 148.10 L 93.30 148.30 L 91.90 148.50 L 90.00 148.10 L 90.00 147.80 L 90.50 147.60 L 91.90 147.40 Z M 162.10 147.40 L 163.90 147.80 L 163.90 148.10 L 163.50 148.30 L 162.10 148.50 L 160.20 148.10 L 160.20 147.80 L 160.70 147.60 L 162.10 147.40 Z M 222.40 147.40 L 224.20 147.80 L 224.20 148.10 L 223.80 148.30 L 222.40 148.50 L 220.50 148.10 L 220.50 147.80 L 221.00 147.60 L 222.40 147.40 Z M 83.00 147.40 L 84.80 147.80 L 84.80 148.10 L 84.40 148.30 L 83.00 148.50 L 81.10 148.10 L 81.10 147.80 L 81.60 147.60 L 83.00 147.40 Z M 153.20 147.40 L 155.00 147.80 L 155.00 148.10 L 154.60 148.30 L 153.20 148.50 L 151.30 148.10 L 151.30 147.80 L 151.80 147.60 L 153.20 147.40 Z M 213.50 147.40 L 215.30 147.80 L 215.30 148.10 L 214.90 148.30 L 213.50 148.50 L 211.60 148.10 L 211.60 147.80 L 212.10 147.60 L 213.50 147.40 Z M 75.00 147.40 L 76.90 147.80 L 76.90 148.10 L 76.40 148.30 L 75.00 148.50 L 73.20 148.10 L 73.20 147.80 L 73.60 147.60 L 75.00 147.40 Z M 145.30 147.40 L 147.10 147.80 L 147.10 148.10 L 146.70 148.30 L 145.30 148.50 L 143.40 148.10 L 143.40 147.80 L 143.90 147.60 L 145.30 147.40 Z M 205.60 147.40 L 207.40 147.80 L 207.40 148.10 L 207.00 148.30 L 205.60 148.50 L 203.70 148.10 L 203.70 147.80 L 204.20 147.60 L 205.60 147.40 Z M 109.70 147.40 L 111.50 147.80 L 111.50 148.10 L 111.10 148.30 L 109.70 148.50 L 107.80 148.10 L 107.80 147.80 L 108.30 147.60 L 109.70 147.40 Z M 178.90 147.40 L 180.70 147.80 L 180.70 148.10 L 180.30 148.30 L 178.90 148.50 L 177.00 148.10 L 177.00 147.80 L 177.50 147.60 L 178.90 147.40 Z M 67.10 147.40 L 69.00 147.80 L 69.00 148.10 L 68.50 148.30 L 67.10 148.50 L 65.30 148.10 L 65.30 147.80 L 65.70 147.60 L 67.10 147.40 Z M 136.40 147.40 L 138.20 147.80 L 138.20 148.10 L 137.80 148.30 L 136.40 148.50 L 134.50 148.10 L 134.50 147.80 L 135.00 147.60 L 136.40 147.40 Z M 196.70 147.40 L 198.50 147.80 L 198.50 148.10 L 198.10 148.30 L 196.70 148.50 L 194.80 148.10 L 194.80 147.80 L 195.30 147.60 L 196.70 147.40 Z M 57.20 147.40 L 59.10 147.80 L 59.10 148.10 L 58.60 148.30 L 57.20 148.50 L 55.40 148.10 L 55.40 147.80 L 55.80 147.60 L 57.20 147.40 Z M 126.50 147.40 L 128.30 147.80 L 128.30 148.10 L 127.90 148.30 L 126.50 148.50 L 124.60 148.10 L 124.60 147.80 L 125.10 147.60 L 126.50 147.40 Z M 99.80 147.40 L 101.60 147.80 L 101.60 148.10 L 101.20 148.30 L 99.80 148.50 L 97.90 148.10 L 97.90 147.80 L 98.40 147.60 L 99.80 147.40 Z" fill="#a3b1bf" fill-rule="evenodd" group-id="1,2,4,10" node-id="62" stroke="none" target-height="7.400009" target-width="185.70001" target-x="51.4" target-y="147.4"></path></g><g node-id="68"><path d="M 171.10 4.20 L 173.00 4.10 L 174.40 5.40 L 210.70 79.80 L 211.00 80.80 L 210.40 82.50 L 200.20 87.70 L 199.80 87.30 L 207.90 83.30 L 209.00 82.50 L 209.70 81.50 L 209.90 80.20 L 209.60 78.80 L 174.60 7.00 L 173.70 5.90 L 172.60 5.20 L 171.30 5.00 L 169.90 5.40 L 42.90 67.30 L 41.80 68.10 L 41.20 69.20 L 40.90 70.50 L 41.20 71.80 L 76.30 143.70 L 77.10 144.70 L 78.10 145.40 L 79.40 145.60 L 80.80 145.40 L 133.00 119.90 L 133.10 120.40 L 79.80 146.40 L 77.90 146.60 L 76.50 145.30 L 40.10 70.80 L 40.00 68.90 L 41.30 67.50 Z" fill="none" group-id="1,2,5" id="Combined-Shape" node-id="16" stroke="#a3b1bf" stroke-linecap="butt" stroke-width="3" target-height="142.5" target-width="171" target-x="40" target-y="4.1"></path><g node-id="74"><path d="M 170.60 6.70 L 172.10 6.60 L 173.20 7.60 L 208.20 79.30 L 208.30 80.80 L 207.30 82.00 L 197.50 86.80 L 194.90 84.10 L 202.50 80.40 L 203.50 79.30 L 203.50 77.80 L 171.60 12.40 L 170.50 11.40 L 168.90 11.50 L 47.70 70.80 L 47.20 72.10 L 47.40 73.00 L 79.20 138.30 L 80.30 139.30 L 81.90 139.20 L 133.50 114.00 L 134.00 117.70 L 80.30 143.90 L 78.80 144.00 L 77.60 143.00 L 42.70 71.30 L 42.50 70.60 L 42.90 69.10 L 170.60 6.70 Z" fill="#a3b1bf" fill-opacity="0.2476981" fill-rule="nonzero" group-id="1,2,5,11" id="Combined-Shape" node-id="17" stroke="none" target-height="137.4" target-width="165.8" target-x="42.5" target-y="6.6"></path></g><g node-id="75"><path d="M 168.90 11.50 L 170.50 11.40 L 171.60 12.40 L 203.50 77.70 L 203.60 79.20 L 202.50 80.40 L 194.90 84.10 L 191.40 81.30 L 187.70 78.90 L 183.60 77.00 L 179.30 75.60 L 174.80 74.70 L 170.00 74.40 L 166.20 74.60 L 162.60 75.10 L 155.80 77.30 L 151.50 79.40 L 147.60 82.00 L 144.10 85.10 L 141.00 88.60 L 138.40 92.50 L 136.30 96.70 L 134.20 103.50 L 133.60 107.20 L 133.50 114.00 L 81.90 139.20 L 80.40 139.30 L 79.20 138.30 L 47.40 73.00 L 47.30 71.40 L 48.30 70.30 L 168.90 11.50 Z" fill="#bcd8ff" fill-opacity="0.10179502" fill-rule="nonzero" group-id="1,2,5,12" id="Combined-Shape" node-id="18" stroke="none" target-height="127.9" target-width="156.3" target-x="47.3" target-y="11.4"></path></g><path d="M 62.40 74.80 L 106.90 53.10 L 108.00 53.00 L 108.80 53.80 L 108.90 54.90 L 108.60 55.40 L 63.70 77.40 L 62.60 77.50 L 61.70 76.70 L 61.70 75.60 L 62.40 74.80 Z" fill="#a3b1bf" fill-rule="nonzero" group-id="1,2,5" id="Rectangle-Copy-14" node-id="19" stroke="#a3b1bf" stroke-linecap="butt" stroke-width="3" target-height="24.5" target-width="47.2" target-x="61.7" target-y="53"></path><path d="M 70.20 90.80 L 114.70 69.10 L 115.80 69.00 L 116.30 69.30 L 116.80 70.30 L 116.40 71.30 L 71.50 93.40 L 70.40 93.40 L 69.50 92.70 L 69.50 91.60 L 70.20 90.80 Z" fill="#a3b1bf" fill-rule="nonzero" group-id="1,2,5" id="Rectangle-Copy-18" node-id="20" stroke="#a3b1bf" stroke-linecap="butt" stroke-width="3" target-height="24.400002" target-width="47.300003" target-x="69.5" target-y="69"></path><path d="M 78.00 106.70 L 122.50 85.00 L 123.60 85.00 L 124.40 85.70 L 124.60 86.30 L 124.20 87.30 L 79.30 109.30 L 78.10 109.40 L 77.30 108.70 L 77.20 107.60 L 78.00 106.70 Z" fill="#a3b1bf" fill-rule="nonzero" group-id="1,2,5" id="Rectangle-Copy-19" node-id="21" stroke="#a3b1bf" stroke-linecap="butt" stroke-width="3" target-height="24.400002" target-width="47.4" target-x="77.2" target-y="85"></path><path d="M 134.60 98.90 L 133.50 102.70 L 87.10 125.30 L 85.90 125.40 L 85.10 124.60 L 85.00 123.50 L 85.80 122.70 Z M 187.20 73.20 L 188.30 73.20 L 189.10 73.90 L 189.20 75.00 L 188.50 75.90 L 186.40 76.90 L 182.70 75.40 Z" fill="#a3b1bf" fill-rule="nonzero" group-id="1,2,5" id="Combined-Shape" node-id="22" stroke="#a3b1bf" stroke-linecap="butt" stroke-width="3" target-height="52.200005" target-width="104.2" target-x="85" target-y="73.2"></path><path d="M 142.30 32.00 L 144.50 31.10 L 146.80 30.70 L 149.10 30.60 L 151.40 31.00 L 155.50 32.80 L 157.30 34.30 L 158.80 36.00 L 160.10 38.10 L 161.00 40.40 L 161.40 42.60 L 161.00 47.20 L 159.20 51.30 L 157.80 53.10 L 156.00 54.60 L 153.90 55.90 L 149.70 57.20 L 146.30 61.30 L 145.00 63.70 L 143.80 67.50 L 143.70 69.80 L 143.90 72.10 L 144.60 74.60 L 146.50 78.60 L 146.10 80.30 L 145.50 80.90 L 143.60 81.20 L 142.30 80.20 L 140.50 76.80 L 139.50 73.70 L 139.10 70.80 L 139.10 67.90 L 140.30 62.70 L 142.00 59.30 L 143.90 56.60 L 141.50 55.60 L 139.40 54.10 L 137.60 52.10 L 136.10 49.80 L 135.20 47.50 L 134.80 45.20 L 135.20 40.70 L 137.00 36.60 L 138.40 34.80 L 140.20 33.20 L 142.30 32.00 Z M 166.00 50.60 L 169.00 51.90 L 172.80 54.40 L 174.80 56.40 L 176.70 58.80 L 178.30 61.90 L 178.70 63.20 L 178.10 64.80 L 177.30 65.40 L 176.30 65.60 L 174.70 64.80 L 173.10 61.80 L 170.70 58.70 L 168.60 57.00 L 164.20 54.90 L 163.60 54.20 L 163.30 52.40 L 163.60 51.50 L 165.10 50.60 L 166.00 50.60 Z M 144.10 35.80 L 142.10 37.20 L 140.60 38.90 L 139.50 41.00 L 139.10 43.30 L 139.20 45.60 L 139.90 47.90 L 141.30 50.00 L 143.10 51.50 L 145.10 52.50 L 147.40 53.00 L 149.70 52.90 L 152.10 52.10 L 154.10 50.70 L 155.70 49.00 L 156.70 46.90 L 157.20 44.60 L 157.00 42.30 L 156.30 40.00 L 154.90 37.90 L 153.10 36.40 L 151.10 35.40 L 148.80 34.90 L 146.50 35.00 L 144.10 35.80 Z" fill="#a3b1bf" fill-rule="evenodd" group-id="1,2,5" id="Combined-Shape" node-id="23" stroke="none" target-height="50.6" target-width="43.899994" target-x="134.8" target-y="30.6"></path></g><g node-id="69"><path d="M 170.00 74.40 L 177.40 75.10 L 184.20 77.30 L 188.50 79.40 L 192.40 82.00 L 195.90 85.10 L 199.00 88.60 L 201.60 92.50 L 203.70 96.70 L 205.80 103.50 L 206.60 111.00 L 205.80 118.40 L 203.70 125.20 L 201.60 129.50 L 199.00 133.30 L 195.90 136.90 L 192.40 139.90 L 188.50 142.60 L 184.20 144.70 L 177.40 146.80 L 173.80 147.40 L 170.00 147.60 L 166.20 147.40 L 159.10 145.90 L 155.80 144.70 L 151.50 142.60 L 147.60 139.90 L 144.10 136.90 L 141.00 133.30 L 138.40 129.50 L 136.30 125.20 L 134.20 118.40 L 133.40 111.00 L 134.20 103.50 L 136.30 96.70 L 138.40 92.50 L 141.00 88.60 L 144.10 85.10 L 147.60 82.00 L 151.50 79.40 L 155.80 77.30 L 162.60 75.10 L 170.00 74.40 Z M 170.00 77.90 L 165.50 78.20 L 161.20 79.10 L 157.10 80.50 L 153.30 82.40 L 149.80 84.80 L 146.60 87.60 L 143.80 90.80 L 141.50 94.30 L 139.50 98.10 L 138.10 102.20 L 137.30 106.40 L 136.90 111.00 L 137.30 115.50 L 138.10 119.80 L 139.50 123.80 L 141.50 127.70 L 143.80 131.20 L 146.60 134.30 L 149.80 137.10 L 153.30 139.50 L 157.10 141.40 L 161.20 142.80 L 165.50 143.70 L 170.00 144.00 L 174.50 143.70 L 178.80 142.80 L 182.90 141.40 L 186.70 139.50 L 190.20 137.10 L 193.40 134.30 L 196.20 131.20 L 198.50 127.70 L 200.50 123.80 L 201.90 119.80 L 202.70 115.50 L 203.10 111.00 L 202.70 106.40 L 201.90 102.20 L 200.50 98.10 L 198.50 94.30 L 196.20 90.80 L 193.40 87.60 L 190.20 84.80 L 186.70 82.40 L 182.90 80.50 L 178.80 79.10 L 174.50 78.20 L 170.00 77.90 Z" fill="#a3b1bf" fill-rule="nonzero" group-id="1,2,6" id="Combined-Shape" node-id="25" stroke="none" target-height="73.200005" target-width="73.20001" target-x="133.4" target-y="74.4"></path><g node-id="76"><path d="M 170.00 77.90 L 174.50 78.20 L 178.80 79.10 L 182.90 80.50 L 186.70 82.40 L 190.20 84.80 L 193.40 87.60 L 196.20 90.80 L 198.50 94.30 L 200.50 98.10 L 201.90 102.20 L 202.70 106.40 L 203.10 111.00 L 202.70 115.50 L 201.90 119.80 L 200.50 123.80 L 198.50 127.70 L 196.20 131.20 L 193.40 134.30 L 190.20 137.10 L 186.70 139.50 L 182.90 141.40 L 178.80 142.80 L 174.50 143.70 L 170.00 144.00 L 165.50 143.70 L 161.20 142.80 L 157.10 141.40 L 153.30 139.50 L 149.80 137.10 L 146.60 134.30 L 143.80 131.20 L 141.50 127.70 L 139.50 123.80 L 138.10 119.80 L 137.30 115.50 L 136.90 111.00 L 137.30 106.40 L 138.10 102.20 L 139.50 98.10 L 141.50 94.30 L 143.80 90.80 L 146.60 87.60 L 149.80 84.80 L 153.30 82.40 L 157.10 80.50 L 161.20 79.10 L 165.50 78.20 L 170.00 77.90 Z M 170.00 81.50 L 165.90 81.70 L 162.10 82.50 L 158.50 83.80 L 155.10 85.50 L 152.00 87.60 L 149.10 90.10 L 146.60 92.90 L 144.50 96.10 L 142.80 99.50 L 141.50 103.10 L 140.80 106.90 L 140.50 111.00 L 140.80 115.00 L 141.50 118.80 L 142.80 122.50 L 144.50 125.90 L 146.60 129.00 L 149.10 131.80 L 152.00 134.30 L 155.10 136.40 L 158.50 138.20 L 162.10 139.40 L 165.90 140.20 L 170.00 140.50 L 174.10 140.20 L 177.90 139.40 L 181.50 138.20 L 184.90 136.40 L 188.00 134.30 L 190.90 131.80 L 193.40 129.00 L 195.50 125.90 L 197.20 122.50 L 198.50 118.80 L 199.20 115.00 L 199.50 111.00 L 199.20 106.90 L 198.50 103.10 L 197.20 99.50 L 195.50 96.10 L 193.40 92.90 L 190.90 90.10 L 188.00 87.60 L 184.90 85.50 L 181.50 83.80 L 177.90 82.50 L 174.10 81.70 L 170.00 81.50 Z" fill="#a3b1bf" fill-opacity="0.2476981" fill-rule="nonzero" group-id="1,2,6,13" id="Combined-Shape" node-id="26" stroke="none" target-height="66.1" target-width="66.20001" target-x="136.9" target-y="77.9"></path></g></g><path d="M 45.50 132.20 L 46.00 132.30 L 46.80 133.10 L 46.90 137.20 L 51.00 137.30 L 51.80 138.10 L 51.90 138.70 L 51.80 139.30 L 51.00 140.10 L 46.90 140.20 L 46.90 143.70 L 46.80 144.30 L 46.00 145.10 L 44.90 145.10 L 44.10 144.30 L 44.00 140.20 L 39.90 140.10 L 39.10 139.30 L 39.00 138.70 L 39.10 138.10 L 39.90 137.30 L 44.00 137.20 L 44.10 133.10 L 44.90 132.30 L 45.50 132.20 Z" fill="#a3b1bf" fill-rule="nonzero" group-id="1,2" id="Combined-Shape-Copy-6" node-id="27" stroke="none" target-height="12.900009" target-width="12.900002" target-x="39" target-y="132.2"></path><path d="M 213.10 15.30 L 213.70 15.50 L 214.50 16.30 L 214.60 20.30 L 218.70 20.50 L 219.50 21.30 L 219.60 21.80 L 219.50 22.40 L 218.70 23.20 L 214.60 23.30 L 214.60 26.80 L 214.50 27.40 L 213.70 28.20 L 212.50 28.20 L 211.70 27.40 L 211.60 23.30 L 207.50 23.20 L 206.70 22.40 L 206.60 21.80 L 206.70 21.30 L 207.50 20.50 L 211.60 20.30 L 211.70 16.30 L 212.50 15.50 L 213.10 15.30 Z" fill="#a3b1bf" fill-rule="nonzero" group-id="1,2" id="Combined-Shape-Copy-9" node-id="28" stroke="none" target-height="12.900001" target-width="13" target-x="206.6" target-y="15.3"></path><path d="M 68.20 28.90 L 67.90 30.90 L 67.10 32.60 L 66.00 34.10 L 64.50 35.30 L 62.80 36.00 L 60.80 36.30 L 58.80 36.00 L 57.10 35.30 L 55.60 34.10 L 54.40 32.60 L 53.70 30.90 L 53.40 28.90 L 53.70 27.00 L 54.40 25.20 L 55.60 23.70 L 57.10 22.60 L 58.80 21.80 L 60.80 21.60 L 62.80 21.80 L 64.50 22.60 L 66.00 23.70 L 67.10 25.20 L 67.90 27.00 L 68.20 28.90 Z" fill="none" group-id="1,2" id="Oval" node-id="29" stroke="#a3b1bf" stroke-linecap="butt" stroke-width="3" target-height="14.699999" target-width="14.799995" target-x="53.4" target-y="21.6"></path><path d="M 149.60 164.70 L 149.30 166.20 L 148.50 167.40 L 147.30 168.20 L 145.80 168.50 L 144.30 168.20 L 143.10 167.40 L 142.30 166.20 L 142.00 164.70 L 142.30 163.20 L 143.10 162.00 L 144.30 161.20 L 145.80 160.90 L 147.30 161.20 L 148.50 162.00 L 149.30 163.20 L 149.60 164.70 Z" fill="none" group-id="1,2" id="Oval-Copy-7" node-id="30" stroke="#a3b1bf" stroke-linecap="butt" stroke-width="3" target-height="7.600006" target-width="7.600006" target-x="142" target-y="160.9"></path><path d="M 235.80 158.80 L 235.70 159.40 L 234.90 160.10 L 233.80 160.10 L 233.00 159.40 L 233.00 158.20 L 233.80 157.40 L 234.90 157.40 L 235.70 158.20 L 235.80 158.80 Z" fill="none" group-id="1,2" id="Oval-Copy-19" node-id="31" stroke="#a3b1bf" stroke-linecap="butt" stroke-width="3" target-height="2.7000122" target-width="2.800003" target-x="233" target-y="157.4"></path><path d="M 12.70 72.60 L 12.60 73.20 L 11.80 73.90 L 10.60 73.90 L 9.90 73.20 L 9.90 72.00 L 10.60 71.30 L 11.80 71.30 L 12.60 72.00 L 12.70 72.60 Z" fill="none" group-id="1,2" id="Oval-Copy-20" node-id="32" stroke="#a3b1bf" stroke-linecap="butt" stroke-width="3" target-height="2.5999985" target-width="2.8000002" target-x="9.9" target-y="71.3"></path><g node-id="70"><path d="M 170.00 132.20 L 168.00 132.00 L 166.30 131.20 L 164.80 130.00 L 163.70 128.50 L 162.90 126.80 L 162.70 124.80 L 162.90 122.80 L 163.60 121.10 L 164.80 119.60 L 166.20 118.40 L 164.40 114.70 L 163.20 110.20 L 161.70 99.70 L 162.00 97.30 L 162.90 95.30 L 164.20 93.50 L 165.80 92.10 L 167.80 91.20 L 170.00 90.90 L 172.20 91.20 L 174.20 92.10 L 175.80 93.50 L 177.10 95.30 L 178.00 97.30 L 178.30 99.70 L 176.80 110.20 L 175.60 114.70 L 173.80 118.40 L 175.20 119.60 L 176.40 121.10 L 177.10 122.80 L 177.30 124.80 L 177.10 126.80 L 176.30 128.50 L 175.20 130.00 L 173.70 131.20 L 172.00 132.00 L 170.00 132.20" fill="#a3b1bf" fill-opacity="0.2476981" fill-rule="nonzero" group-id="1,2,7" id="Fill-1" node-id="33" stroke="none" target-height="41.299995" target-width="16.600006" target-x="161.7" target-y="90.9"></path></g><path d="M 166.20 124.80 L 166.50 123.20 L 167.30 122.00 L 168.50 121.20 L 170.00 120.90 L 171.50 121.20 L 172.70 122.00 L 173.50 123.20 L 173.80 124.80 L 173.50 126.30 L 172.70 127.50 L 171.50 128.40 L 170.00 128.70 L 168.50 128.40 L 167.30 127.50 L 166.50 126.30 L 166.20 124.80 M 170.00 94.40 L 171.30 94.60 L 173.30 96.00 L 174.50 98.30 L 174.70 99.70 L 174.40 103.60 L 172.60 112.40 L 171.10 116.00 L 170.00 116.90 L 168.90 116.00 L 167.40 112.40 L 165.60 103.60 L 165.30 99.70 L 165.50 98.30 L 166.70 96.00 L 168.70 94.60 L 170.00 94.40" fill="#a3b1bf" fill-rule="evenodd" group-id="1,2" id="Fill-3" node-id="34" stroke="none" target-height="34.299995" target-width="9.399994" target-x="165.3" target-y="94.4"></path><g node-id="71"><path d="M 222.70 33.20 L 221.30 32.60 L 218.60 29.70 L 218.50 28.40 L 218.80 27.80 L 220.10 27.20 L 221.30 27.60 L 224.40 31.00 L 224.20 32.30 L 223.80 32.80 L 222.70 33.20 M 223.60 43.10 L 222.20 42.40 L 221.90 41.10 L 223.30 37.10 L 224.30 36.30 L 225.70 36.50 L 226.50 37.50 L 226.60 38.20 L 225.20 42.20 L 224.50 42.80 L 223.60 43.10 M 216.10 50.40 L 215.30 50.20 L 214.70 49.60 L 214.40 49.00 L 214.60 47.70 L 218.50 44.80 L 219.80 44.90 L 220.30 45.40 L 220.70 46.00 L 220.50 47.30 L 217.10 50.10 L 216.10 50.40 M 206.90 55.60 L 206.00 55.40 L 205.30 54.60 L 205.10 53.90 L 205.60 52.70 L 209.90 50.50 L 211.20 50.90 L 211.60 51.40 L 211.80 52.10 L 211.40 53.40 L 206.90 55.60 M 43.80 102.60 L 42.90 102.30 L 42.20 101.60 L 42.20 100.20 L 43.10 99.20 L 46.40 97.80 L 47.10 97.70 L 48.30 98.20 L 48.70 98.80 L 48.70 100.10 L 47.80 101.10 L 43.80 102.60 M 34.40 107.50 L 33.60 107.30 L 32.90 106.60 L 32.70 106.00 L 33.00 104.70 L 37.30 102.20 L 38.60 102.60 L 39.00 103.10 L 39.20 103.80 L 38.90 105.00 L 35.30 107.20 L 34.40 107.50 M 26.40 114.30 L 25.30 113.90 L 24.80 113.40 L 24.60 112.10 L 26.10 110.10 L 28.10 108.20 L 29.50 108.30 L 30.00 108.70 L 30.40 109.30 L 30.40 110.60 L 27.80 113.60 L 26.40 114.30 M 25.20 124.20 L 24.30 123.90 L 23.70 123.20 L 22.80 121.20 L 22.40 119.20 L 22.80 117.90 L 24.00 117.30 L 24.70 117.40 L 25.80 118.20 L 27.00 122.30 L 26.60 123.60 L 25.20 124.20 M 32.60 131.60 L 31.70 131.30 L 28.20 128.60 L 28.10 127.20 L 28.50 126.60 L 29.70 126.00 L 30.90 126.40 L 34.10 128.90 L 34.40 130.20 L 34.10 130.90 L 33.50 131.40 L 32.60 131.60" fill="#a3b1bf" fill-opacity="0.25385976" fill-rule="nonzero" group-id="1,2,8" id="Fill-1" node-id="35" stroke="none" target-height="104.40001" target-width="204.20001" target-x="22.4" target-y="27.2"></path></g><path d="M 223.90 30.80 L 219.40 29.00 L 218.80 27.80 L 218.90 27.10 L 219.90 26.10 L 221.20 26.10 L 225.20 27.80 L 225.70 29.00 L 225.50 29.70 L 224.90 30.50 L 223.90 30.80 M 233.40 35.50 L 232.50 35.30 L 228.90 33.10 L 228.60 31.90 L 228.80 31.20 L 229.80 30.30 L 231.10 30.50 L 234.80 32.80 L 235.10 34.00 L 234.90 34.70 L 234.20 35.30 L 233.40 35.50 M 240.20 43.30 L 239.60 43.20 L 238.60 42.30 L 238.10 40.60 L 237.10 38.70 L 237.30 37.40 L 238.40 36.60 L 239.70 36.80 L 240.20 37.20 L 241.40 39.30 L 241.90 42.00 L 241.10 43.00 L 240.20 43.30 M 234.10 51.20 L 233.20 50.90 L 232.60 50.30 L 232.40 48.90 L 233.20 47.80 L 236.50 45.70 L 237.80 45.80 L 238.40 46.30 L 238.70 46.90 L 238.60 48.20 L 236.70 49.80 L 234.10 51.20 M 224.40 55.40 L 223.00 54.70 L 222.60 53.50 L 222.80 52.80 L 223.80 51.90 L 227.70 50.60 L 228.90 51.10 L 229.30 51.70 L 229.50 52.40 L 228.90 53.60 L 224.40 55.40 M 214.20 58.40 L 212.70 57.60 L 212.40 56.40 L 212.70 55.70 L 213.70 54.90 L 217.10 54.00 L 217.80 53.90 L 219.00 54.60 L 219.30 55.20 L 219.10 56.60 L 218.10 57.40 L 214.20 58.40 M 203.80 60.80 L 202.30 60.00 L 202.10 58.70 L 202.40 58.10 L 203.50 57.30 L 206.90 56.60 L 207.60 56.60 L 208.70 57.30 L 209.00 57.90 L 208.80 59.20 L 207.70 60.00 L 203.80 60.80 M 35.80 85.40 L 34.30 84.60 L 34.00 83.30 L 34.20 82.70 L 35.30 81.90 L 38.80 81.00 L 39.50 81.00 L 40.60 81.70 L 40.90 82.30 L 40.70 83.60 L 39.60 84.40 L 35.80 85.40 M 25.60 88.40 L 24.20 87.70 L 23.80 86.50 L 24.00 85.80 L 25.00 84.90 L 28.40 83.80 L 29.10 83.80 L 30.30 84.40 L 30.60 85.00 L 30.50 86.40 L 29.50 87.20 L 25.60 88.40 M 15.70 92.30 L 14.80 92.00 L 14.10 91.30 L 14.00 89.90 L 14.90 88.90 L 18.30 87.40 L 19.00 87.30 L 20.20 87.80 L 20.60 88.40 L 20.60 89.80 L 19.60 90.70 L 15.70 92.30 M 6.70 97.90 L 5.40 97.30 L 5.00 96.70 L 5.10 95.40 L 9.20 92.20 L 10.50 92.50 L 11.00 93.00 L 11.30 93.60 L 11.00 94.90 L 7.90 97.50 L 6.70 97.90 M 1.80 106.90 L 0.50 106.30 L 0.00 105.10 L 0.90 101.00 L 1.20 100.40 L 2.50 99.90 L 3.80 100.40 L 4.30 101.70 L 3.40 105.80 L 2.50 106.70 L 1.80 106.90 M 5.80 116.40 L 4.40 115.80 L 2.20 112.70 L 2.00 112.00 L 2.30 110.80 L 3.50 110.00 L 4.80 110.40 L 7.50 114.20 L 7.40 115.50 L 6.90 116.00 L 5.80 116.40 M 13.60 123.60 L 12.50 123.30 L 9.20 120.50 L 9.10 119.10 L 9.50 118.50 L 10.70 117.90 L 12.00 118.30 L 15.10 121.00 L 15.30 122.30 L 15.00 122.90 L 13.60 123.60 M 22.40 129.50 L 21.50 129.30 L 18.00 126.90 L 17.70 125.60 L 17.90 124.90 L 19.00 124.20 L 20.40 124.40 L 23.90 126.70 L 24.20 128.00 L 24.00 128.70 L 23.30 129.30 L 22.40 129.50 M 31.70 134.70 L 27.20 132.40 L 26.80 131.10 L 27.00 130.40 L 28.10 129.50 L 29.40 129.70 L 33.10 131.80 L 33.50 133.00 L 33.30 133.70 L 32.60 134.40 L 31.70 134.70" fill="#a3b1bf" fill-rule="evenodd" group-id="1,2" id="Fill-1" node-id="36" stroke="none" target-height="108.6" target-width="241.9" target-x="0" target-y="26.1"></path></g></g></svg>