<?xml version="1.0" standalone="no"?><!DOCTYPE svg PUBLIC "-//W3C//DTD SVG 1.1//EN" "http://www.w3.org/Graphics/SVG/1.1/DTD/svg11.dtd"><svg height="1024" node-id="1" sillyvg="true" template-height="1024" template-width="1447" version="1.1" viewBox="0 0 1447 1024" width="1447" xmlns="http://www.w3.org/2000/svg" xmlns:xlink="http://www.w3.org/1999/xlink"><defs node-id="63"><linearGradient gradientUnits="objectBoundingBox" id="paint0_linear_1608_18892" node-id="56" spreadMethod="pad" x1="1361.28" x2="1272.98" y1="137.108" y2="137.108"><stop offset="0" stop-color="#b69cf8"></stop><stop offset="1" stop-color="#859be9"></stop></linearGradient><linearGradient gradientUnits="objectBoundingBox" id="paint1_linear_1608_18892" node-id="59" spreadMethod="pad" x1="-0.00409013" x2="372.166" y1="837.912" y2="837.912"><stop offset="0" stop-color="#a185e9"></stop><stop offset="1" stop-color="#ed81ff"></stop></linearGradient></defs><path d="M 519.70 0.00 L 1442.40 0.00 L 1444.00 0.30 L 1445.20 1.20 L 1446.10 2.40 L 1446.40 4.00 L 1446.40 984.90 L 1446.10 986.40 L 1445.20 987.70 L 1444.00 988.50 L 1442.40 988.90 L 519.70 988.90 L 518.10 988.50 L 516.90 987.70 L 516.00 986.40 L 515.70 984.90 L 515.70 4.00 L 516.00 2.40 L 516.90 1.20 L 518.10 0.30 L 519.70 0.00 Z" fill="#eef3f7" fill-rule="nonzero" node-id="78" stroke="none" target-height="988.9" target-width="930.7" target-x="515.7" target-y="0"></path><path d="M 1274.00 92.70 L 1360.30 92.70 L 1361.00 93.00 L 1361.30 93.70 L 1361.30 180.50 L 1361.00 181.20 L 1360.30 181.50 L 1274.00 181.50 L 1273.30 181.20 L 1273.00 180.50 L 1273.00 93.70 L 1273.30 93.00 L 1274.00 92.70 Z" fill="url(#paint0_linear_1608_18892)" fill-rule="nonzero" node-id="80" stroke="none" target-height="88.8" target-width="88.30005" target-x="1273" target-y="92.7"></path><path d="M 917.40 102.60 L 1237.70 102.60 L 1237.70 125.80 L 917.40 125.80 L 917.40 102.60 Z" fill="#b5d1de" fill-rule="nonzero" node-id="82" stroke="none" target-height="23.200005" target-width="320.29993" target-x="917.4" target-y="102.6"></path><path d="M 1005.60 150.10 L 1237.70 150.10 L 1237.70 173.40 L 1005.60 173.40 L 1005.60 150.10 Z" fill="#b5d1de" fill-rule="nonzero" node-id="84" stroke="none" target-height="23.299988" target-width="232.09998" target-x="1005.6" target-y="150.1"></path><path d="M 965.70 556.20 L 865.10 556.20 L 865.10 577.90 L 965.70 577.90 L 965.70 556.20 Z" fill="#d8e5ed" fill-rule="nonzero" node-id="86" stroke="none" target-height="21.700012" target-width="100.60004" target-x="865.1" target-y="556.2"></path><path d="M 839.60 556.20 L 810.80 556.20 L 810.80 577.90 L 839.60 577.90 L 839.60 556.20 Z" fill="#d8e5ed" fill-rule="nonzero" node-id="88" stroke="none" target-height="21.700012" target-width="28.799988" target-x="810.8" target-y="556.2"></path><path d="M 1163.60 556.20 L 1063.00 556.20 L 1063.00 577.90 L 1163.60 577.90 L 1163.60 556.20 Z" fill="#d8e5ed" fill-rule="nonzero" node-id="90" stroke="none" target-height="21.700012" target-width="100.599976" target-x="1063" target-y="556.2"></path><path d="M 1037.50 556.20 L 1008.70 556.20 L 1008.70 577.90 L 1037.50 577.90 L 1037.50 556.20 Z" fill="#d8e5ed" fill-rule="nonzero" node-id="92" stroke="none" target-height="21.700012" target-width="28.799988" target-x="1008.7" target-y="556.2"></path><path d="M 1366.80 556.20 L 1266.20 556.20 L 1266.20 577.90 L 1366.80 577.90 L 1366.80 556.20 Z" fill="#d8e5ed" fill-rule="nonzero" node-id="94" stroke="none" target-height="21.700012" target-width="100.6001" target-x="1266.2" target-y="556.2"></path><path d="M 1240.70 556.20 L 1211.90 556.20 L 1211.90 577.90 L 1240.70 577.90 L 1240.70 556.20 Z" fill="#d8e5ed" fill-rule="nonzero" node-id="96" stroke="none" target-height="21.700012" target-width="28.799927" target-x="1211.9" target-y="556.2"></path><path d="M 965.70 604.10 L 865.10 604.10 L 865.10 625.80 L 965.70 625.80 L 965.70 604.10 Z" fill="#d8e5ed" fill-rule="nonzero" node-id="98" stroke="none" target-height="21.700012" target-width="100.60004" target-x="865.1" target-y="604.1"></path><path d="M 839.60 604.10 L 810.80 604.10 L 810.80 625.80 L 839.60 625.80 L 839.60 604.10 Z" fill="#d8e5ed" fill-rule="nonzero" node-id="100" stroke="none" target-height="21.700012" target-width="28.799988" target-x="810.8" target-y="604.1"></path><path d="M 1163.60 604.10 L 1063.00 604.10 L 1063.00 625.80 L 1163.60 625.80 L 1163.60 604.10 Z" fill="#d8e5ed" fill-rule="nonzero" node-id="102" stroke="none" target-height="21.700012" target-width="100.599976" target-x="1063" target-y="604.1"></path><path d="M 1037.50 604.10 L 1008.70 604.10 L 1008.70 625.80 L 1037.50 625.80 L 1037.50 604.10 Z" fill="#d8e5ed" fill-rule="nonzero" node-id="104" stroke="none" target-height="21.700012" target-width="28.799988" target-x="1008.7" target-y="604.1"></path><path d="M 1366.80 604.10 L 1266.20 604.10 L 1266.20 625.80 L 1366.80 625.80 L 1366.80 604.10 Z" fill="#d8e5ed" fill-rule="nonzero" node-id="106" stroke="none" target-height="21.700012" target-width="100.6001" target-x="1266.2" target-y="604.1"></path><path d="M 1240.70 604.10 L 1211.90 604.10 L 1211.90 625.80 L 1240.70 625.80 L 1240.70 604.10 Z" fill="#d8e5ed" fill-rule="nonzero" node-id="108" stroke="none" target-height="21.700012" target-width="28.799927" target-x="1211.9" target-y="604.1"></path><path d="M 965.70 651.80 L 865.10 651.80 L 865.10 673.50 L 965.70 673.50 L 965.70 651.80 Z" fill="#d8e5ed" fill-rule="nonzero" node-id="110" stroke="none" target-height="21.700012" target-width="100.60004" target-x="865.1" target-y="651.8"></path><path d="M 839.60 651.80 L 810.80 651.80 L 810.80 673.50 L 839.60 673.50 L 839.60 651.80 Z" fill="#d8e5ed" fill-rule="nonzero" node-id="112" stroke="none" target-height="21.700012" target-width="28.799988" target-x="810.8" target-y="651.8"></path><path d="M 1163.60 651.80 L 1063.00 651.80 L 1063.00 673.50 L 1163.60 673.50 L 1163.60 651.80 Z" fill="#d8e5ed" fill-rule="nonzero" node-id="114" stroke="none" target-height="21.700012" target-width="100.599976" target-x="1063" target-y="651.8"></path><path d="M 1037.50 651.80 L 1008.70 651.80 L 1008.70 673.50 L 1037.50 673.50 L 1037.50 651.80 Z" fill="#d8e5ed" fill-rule="nonzero" node-id="116" stroke="none" target-height="21.700012" target-width="28.799988" target-x="1008.7" target-y="651.8"></path><path d="M 1366.80 651.80 L 1266.20 651.80 L 1266.20 673.50 L 1366.80 673.50 L 1366.80 651.80 Z" fill="#d8e5ed" fill-rule="nonzero" node-id="118" stroke="none" target-height="21.700012" target-width="100.6001" target-x="1266.2" target-y="651.8"></path><path d="M 1240.70 651.80 L 1211.90 651.80 L 1211.90 673.50 L 1240.70 673.50 L 1240.70 651.80 Z" fill="#d8e5ed" fill-rule="nonzero" node-id="120" stroke="none" target-height="21.700012" target-width="28.799927" target-x="1211.9" target-y="651.8"></path><path d="M 593.00 248.20 L 593.30 247.50 L 594.00 247.20 L 1364.50 247.20 L 1365.20 247.50 L 1365.50 248.20 L 1365.50 493.40 L 1365.20 494.10 L 1364.50 494.40 L 594.00 494.40 L 593.30 494.10 L 593.00 493.40 L 593.00 248.20 Z" fill="#d8e5ed" fill-rule="evenodd" node-id="122" stroke="none" target-height="247.2" target-width="772.5" target-x="593" target-y="247.2"></path><path d="M 718.50 442.20 L 724.40 442.00 L 730.00 441.30 L 735.50 440.20 L 740.80 438.70 L 746.00 436.80 L 751.00 434.60 L 755.70 432.00 L 760.20 429.10 L 764.50 425.90 L 768.50 422.30 L 772.10 418.50 L 775.50 414.50 L 778.60 410.10 L 781.30 405.60 L 783.60 400.90 L 785.60 395.90 L 787.10 390.80 L 788.20 385.50 L 788.90 380.10 L 789.20 374.50 L 788.90 368.90 L 788.20 363.40 L 787.10 358.20 L 785.60 353.10 L 783.60 348.10 L 781.30 343.30 L 778.60 338.80 L 775.50 334.50 L 772.10 330.40 L 768.50 326.60 L 764.50 323.10 L 760.20 319.80 L 755.70 316.90 L 751.00 314.30 L 746.00 312.10 L 740.80 310.20 L 735.50 308.70 L 730.00 307.70 L 724.40 307.00 L 718.50 306.80 L 712.60 307.00 L 707.00 307.70 L 701.50 308.70 L 696.20 310.20 L 691.00 312.10 L 686.00 314.30 L 681.30 316.90 L 676.80 319.80 L 672.50 323.10 L 668.50 326.60 L 664.90 330.40 L 661.50 334.50 L 658.40 338.80 L 655.70 343.30 L 653.40 348.10 L 651.40 353.10 L 649.90 358.20 L 648.80 363.40 L 648.10 368.90 L 647.80 374.50 L 648.10 380.10 L 648.80 385.50 L 649.90 390.80 L 651.40 395.90 L 653.40 400.90 L 655.70 405.60 L 658.40 410.10 L 661.50 414.50 L 664.90 418.50 L 668.50 422.30 L 672.50 425.90 L 676.80 429.10 L 681.30 432.00 L 686.00 434.60 L 691.00 436.80 L 696.20 438.70 L 701.50 440.20 L 707.00 441.30 L 712.60 442.00 L 718.50 442.20 Z" fill="#baa1fa" fill-rule="nonzero" node-id="124" stroke="none" target-height="135.40002" target-width="141.40002" target-x="647.8" target-y="306.8"></path><path d="M 718.00 442.20 L 718.00 374.50 L 666.20 328.80 L 662.60 333.00 L 659.30 337.40 L 656.40 342.10 L 653.90 347.00 L 651.80 352.10 L 650.10 357.50 L 648.80 363.00 L 648.10 368.60 L 647.80 374.50 L 648.10 380.10 L 648.80 385.50 L 649.90 390.80 L 651.40 395.90 L 653.40 400.90 L 655.70 405.60 L 658.30 410.10 L 661.40 414.50 L 664.70 418.60 L 668.40 422.40 L 672.30 425.90 L 676.50 429.10 L 681.00 432.00 L 685.70 434.60 L 690.60 436.80 L 695.80 438.70 L 701.10 440.20 L 706.50 441.30 L 712.10 442.00 L 718.00 442.20 Z" fill="#859be9" fill-rule="evenodd" node-id="126" stroke="none" target-height="113.400024" target-width="70.20001" target-x="647.8" target-y="328.8"></path><path d="M 718.00 374.00 L 718.00 442.20 L 723.90 442.00 L 729.60 441.30 L 735.10 440.20 L 740.50 438.70 L 745.70 436.80 L 750.70 434.60 L 755.50 432.00 L 760.00 429.10 L 764.30 425.80 L 768.30 422.20 L 772.00 418.40 L 775.40 414.30 L 778.50 410.00 L 781.20 405.40 L 783.60 400.60 L 785.50 395.60 L 787.10 390.50 L 788.20 385.20 L 788.90 379.70 L 789.20 374.10 L 718.00 374.00 Z" fill="#ed81ff" fill-rule="evenodd" node-id="128" stroke="none" target-height="68.20001" target-width="71.20001" target-x="718" target-y="374"></path><path d="M 831.70 307.80 L 1306.20 307.80 L 1306.20 331.70 L 831.70 331.70 L 831.70 307.80 Z" fill="#ffffff" fill-rule="evenodd" node-id="130" stroke="none" target-height="23.900024" target-width="474.49994" target-x="831.7" target-y="307.8"></path><path d="M 831.70 307.80 L 1021.40 307.80 L 1021.40 331.70 L 831.70 331.70 L 831.70 307.80 Z" fill="#baa1fa" fill-rule="evenodd" node-id="132" stroke="none" target-height="23.900024" target-width="189.70001" target-x="831.7" target-y="307.8"></path><path d="M 831.90 409.60 L 1306.50 409.60 L 1306.50 434.60 L 831.90 434.60 L 831.90 409.60 Z" fill="#ffffff" fill-rule="evenodd" node-id="134" stroke="none" target-height="25" target-width="474.59998" target-x="831.9" target-y="409.6"></path><path d="M 831.90 409.60 L 1069.40 409.60 L 1069.40 434.60 L 831.90 434.60 L 831.90 409.60 Z" fill="#859be9" fill-rule="evenodd" node-id="136" stroke="none" target-height="25" target-width="237.5" target-x="831.9" target-y="409.6"></path><path d="M 831.90 360.30 L 1306.50 360.30 L 1306.50 385.30 L 831.90 385.30 L 831.90 360.30 Z" fill="#ffffff" fill-rule="evenodd" node-id="138" stroke="none" target-height="25" target-width="474.59998" target-x="831.9" target-y="360.3"></path><path d="M 831.90 360.30 L 1123.90 360.30 L 1123.90 385.30 L 831.90 385.30 L 831.90 360.30 Z" fill="#ed81ff" fill-rule="evenodd" node-id="140" stroke="none" target-height="25" target-width="292" target-x="831.9" target-y="360.3"></path><path d="M 250.10 251.50 L 1039.70 251.50 L 1039.70 737.40 L 250.10 737.40 Z" fill="#ffffff" fill-rule="nonzero" node-id="142" stroke="none" target-height="485.90002" target-width="789.6" target-x="250.1" target-y="251.5"></path><path d="M 250.10 251.50 L 1039.70 251.50 L 1039.70 373.00 L 250.10 373.00 Z" fill="#b69cf8" fill-rule="nonzero" node-id="144" stroke="none" target-height="121.5" target-width="789.6" target-x="250.1" target-y="251.5"></path><path d="M 259.30 190.80 L 1030.50 190.80 L 1036.30 191.00 L 1041.90 191.70 L 1047.30 192.80 L 1052.50 194.30 L 1057.70 196.30 L 1062.60 198.60 L 1067.30 201.20 L 1071.70 204.30 L 1076.00 207.60 L 1079.90 211.20 L 1083.50 215.20 L 1086.90 219.40 L 1089.90 223.80 L 1092.60 228.50 L 1094.90 233.40 L 1096.80 238.50 L 1098.40 243.80 L 1099.50 249.20 L 1100.20 254.80 L 1100.40 260.60 L 1100.40 813.30 L 1100.20 816.10 L 1099.50 818.70 L 1098.30 821.00 L 1096.80 823.10 L 1095.00 825.00 L 1092.90 826.50 L 1090.60 827.60 L 1088.00 828.30 L 1085.20 828.50 L 204.50 828.50 L 201.80 828.30 L 199.20 827.60 L 196.90 826.50 L 194.70 825.00 L 192.90 823.10 L 191.40 821.00 L 190.30 818.70 L 189.60 816.10 L 189.40 813.30 L 189.40 260.60 L 189.60 254.80 L 190.30 249.20 L 191.40 243.80 L 192.90 238.50 L 194.90 233.40 L 197.20 228.50 L 199.80 223.80 L 202.90 219.40 L 206.20 215.20 L 209.90 211.20 L 213.80 207.60 L 218.00 204.30 L 222.50 201.20 L 227.20 198.60 L 232.10 196.30 L 237.20 194.30 L 242.50 192.80 L 247.90 191.70 L 253.50 191.00 L 259.30 190.80 Z M 250.10 266.70 L 250.10 722.20 L 250.30 725.00 L 251.00 727.50 L 252.20 729.90 L 253.70 732.00 L 255.50 733.80 L 257.60 735.30 L 260.00 736.50 L 262.50 737.20 L 265.30 737.40 L 1024.50 737.40 L 1027.30 737.20 L 1029.80 736.50 L 1032.20 735.30 L 1034.30 733.80 L 1036.10 732.00 L 1037.60 729.90 L 1038.70 727.50 L 1039.40 725.00 L 1039.70 722.20 L 1039.70 266.70 L 1039.40 263.90 L 1038.70 261.40 L 1037.60 259.00 L 1036.10 256.90 L 1034.30 255.10 L 1032.20 253.60 L 1029.80 252.50 L 1027.30 251.80 L 1024.50 251.50 L 265.30 251.50 L 262.50 251.80 L 260.00 252.50 L 257.60 253.60 L 255.50 255.10 L 253.70 256.90 L 252.20 259.00 L 251.00 261.40 L 250.30 263.90 L 250.10 266.70 Z" fill="#ffffff" fill-rule="evenodd" node-id="146" stroke="none" target-height="637.7" target-width="911" target-x="189.4" target-y="190.8"></path><path d="M 1115.60 798.20 L 174.20 798.20 L 171.40 798.40 L 168.90 799.10 L 166.50 800.20 L 164.40 801.70 L 162.60 803.50 L 161.10 805.70 L 159.90 808.00 L 159.20 810.60 L 159.00 813.30 L 159.20 818.40 L 160.80 828.00 L 162.10 832.50 L 165.80 841.30 L 170.70 849.20 L 174.70 854.10 L 179.10 858.50 L 183.90 862.40 L 187.80 865.00 L 196.10 869.30 L 200.60 871.00 L 209.90 873.30 L 214.70 873.90 L 219.80 874.10 L 1070.00 874.10 L 1075.00 873.90 L 1079.90 873.30 L 1089.20 871.00 L 1093.70 869.30 L 1102.00 865.00 L 1105.90 862.40 L 1110.70 858.50 L 1115.10 854.10 L 1119.00 849.20 L 1124.00 841.30 L 1127.70 832.50 L 1129.00 828.00 L 1130.60 818.40 L 1130.80 813.30 L 1130.50 810.60 L 1129.80 808.00 L 1128.70 805.70 L 1127.20 803.50 L 1125.40 801.70 L 1123.30 800.20 L 1120.90 799.10 L 1118.40 798.40 L 1115.60 798.20 Z" fill="#e9e0ff" fill-rule="nonzero" node-id="148" stroke="none" target-height="75.89996" target-width="971.80005" target-x="159" target-y="798.2"></path><path d="M 432.30 327.40 L 326.00 327.40 L 323.20 327.20 L 320.70 326.50 L 318.30 325.40 L 316.20 323.90 L 314.40 322.10 L 312.90 319.90 L 311.80 317.60 L 311.10 315.00 L 310.80 312.30 L 311.10 309.50 L 311.80 306.90 L 312.90 304.60 L 314.40 302.50 L 316.20 300.70 L 318.30 299.10 L 320.70 298.00 L 323.20 297.30 L 326.00 297.10 L 432.30 297.10 L 435.10 297.30 L 437.60 298.00 L 440.00 299.10 L 442.10 300.70 L 443.90 302.50 L 445.40 304.60 L 446.50 306.90 L 447.20 309.50 L 447.50 312.30 L 447.20 315.00 L 446.50 317.60 L 445.40 319.90 L 443.90 322.10 L 442.10 323.90 L 440.00 325.40 L 437.60 326.50 L 435.10 327.20 L 432.30 327.40 Z" fill="#d8cef1" fill-rule="nonzero" node-id="150" stroke="none" target-height="30.299988" target-width="136.70001" target-x="310.8" target-y="297.1"></path><path d="M 705.60 327.40 L 690.40 327.40 L 687.70 327.20 L 685.10 326.50 L 682.80 325.40 L 680.60 323.90 L 678.80 322.10 L 677.30 319.90 L 676.20 317.60 L 675.50 315.00 L 675.30 312.30 L 675.50 309.50 L 676.20 306.90 L 677.30 304.60 L 678.80 302.50 L 680.60 300.70 L 682.80 299.10 L 685.10 298.00 L 687.70 297.30 L 690.40 297.10 L 705.60 297.10 L 708.40 297.30 L 710.90 298.00 L 713.30 299.10 L 715.40 300.70 L 717.20 302.50 L 718.70 304.60 L 719.90 306.90 L 720.60 309.50 L 720.80 312.30 L 720.60 315.00 L 719.90 317.60 L 718.70 319.90 L 717.20 322.10 L 715.40 323.90 L 713.30 325.40 L 710.90 326.50 L 708.40 327.20 L 705.60 327.40 Z" fill="#ffffff" fill-rule="nonzero" node-id="152" stroke="none" target-height="30.299988" target-width="45.5" target-x="675.3" target-y="297.1"></path><path d="M 781.50 327.40 L 766.40 327.40 L 763.60 327.20 L 761.00 326.50 L 758.70 325.40 L 756.60 323.90 L 754.80 322.10 L 753.30 319.90 L 752.10 317.60 L 751.40 315.00 L 751.20 312.30 L 751.40 309.50 L 752.10 306.90 L 753.30 304.60 L 754.80 302.50 L 756.60 300.70 L 758.70 299.10 L 761.00 298.00 L 763.60 297.30 L 766.40 297.10 L 781.50 297.10 L 784.30 297.30 L 786.90 298.00 L 789.20 299.10 L 791.30 300.70 L 793.20 302.50 L 794.70 304.60 L 795.80 306.90 L 796.50 309.50 L 796.70 312.30 L 796.50 315.00 L 795.80 317.60 L 794.70 319.90 L 793.20 322.10 L 791.30 323.90 L 789.20 325.40 L 786.90 326.50 L 784.30 327.20 L 781.50 327.40 Z" fill="#ffffff" fill-rule="nonzero" node-id="154" stroke="none" target-height="30.299988" target-width="45.5" target-x="751.2" target-y="297.1"></path><path d="M 857.50 327.40 L 842.30 327.40 L 839.50 327.20 L 837.00 326.50 L 834.60 325.40 L 832.50 323.90 L 830.70 322.10 L 829.20 319.90 L 828.00 317.60 L 827.40 315.00 L 827.10 312.30 L 827.40 309.50 L 828.00 306.90 L 829.20 304.60 L 830.70 302.50 L 832.50 300.70 L 834.60 299.10 L 837.00 298.00 L 839.50 297.30 L 842.30 297.10 L 857.50 297.10 L 860.20 297.30 L 862.80 298.00 L 865.10 299.10 L 867.30 300.70 L 869.10 302.50 L 870.60 304.60 L 871.70 306.90 L 872.40 309.50 L 872.70 312.30 L 872.40 315.00 L 871.70 317.60 L 870.60 319.90 L 869.10 322.10 L 867.30 323.90 L 865.10 325.40 L 862.80 326.50 L 860.20 327.20 L 857.50 327.40 Z" fill="#ffffff" fill-rule="nonzero" node-id="156" stroke="none" target-height="30.299988" target-width="45.600037" target-x="827.1" target-y="297.1"></path><path d="M 933.40 327.40 L 918.20 327.40 L 915.40 327.20 L 912.90 326.50 L 910.50 325.40 L 908.40 323.90 L 906.60 322.10 L 905.10 319.90 L 904.00 317.60 L 903.30 315.00 L 903.00 312.30 L 903.30 309.50 L 904.00 306.90 L 905.10 304.60 L 906.60 302.50 L 908.40 300.70 L 910.50 299.10 L 912.90 298.00 L 915.40 297.30 L 918.20 297.10 L 933.40 297.10 L 936.20 297.30 L 938.70 298.00 L 941.10 299.10 L 943.20 300.70 L 945.00 302.50 L 946.50 304.60 L 947.60 306.90 L 948.30 309.50 L 948.60 312.30 L 948.30 315.00 L 947.60 317.60 L 946.50 319.90 L 945.00 322.10 L 943.20 323.90 L 941.10 325.40 L 938.70 326.50 L 936.20 327.20 L 933.40 327.40 Z" fill="#ffffff" fill-rule="nonzero" node-id="158" stroke="none" target-height="30.299988" target-width="45.599976" target-x="903" target-y="297.1"></path><path d="M 584.10 691.90 L 326.00 691.90 L 323.20 691.60 L 320.70 690.90 L 318.30 689.80 L 316.20 688.30 L 314.40 686.50 L 312.90 684.30 L 311.80 682.00 L 311.10 679.50 L 310.80 676.70 L 310.80 433.70 L 311.10 431.00 L 311.80 428.40 L 312.90 426.10 L 314.40 423.90 L 316.20 422.10 L 318.30 420.60 L 320.70 419.50 L 323.20 418.80 L 326.00 418.50 L 584.10 418.50 L 586.90 418.80 L 589.50 419.50 L 591.80 420.60 L 593.90 422.10 L 595.70 423.90 L 597.30 426.10 L 598.40 428.40 L 599.10 431.00 L 599.30 433.70 L 599.30 676.70 L 599.10 679.50 L 598.40 682.00 L 597.30 684.30 L 595.70 686.50 L 593.90 688.30 L 591.80 689.80 L 589.50 690.90 L 586.90 691.60 L 584.10 691.90 Z" fill="#ed81ff" fill-rule="nonzero" node-id="160" stroke="none" target-height="273.40002" target-width="288.5" target-x="310.8" target-y="418.5"></path><path d="M 948.60 448.90 L 660.10 448.90 L 657.30 448.70 L 654.80 448.00 L 652.40 446.80 L 650.30 445.30 L 648.50 443.50 L 647.00 441.40 L 645.80 439.00 L 645.10 436.50 L 644.90 433.70 L 645.10 431.00 L 645.80 428.40 L 647.00 426.10 L 648.50 423.90 L 650.30 422.10 L 652.40 420.60 L 654.80 419.50 L 657.30 418.80 L 660.10 418.50 L 948.60 418.50 L 951.40 418.80 L 953.90 419.50 L 956.20 420.60 L 958.40 422.10 L 960.20 423.90 L 961.70 426.10 L 962.80 428.40 L 963.50 431.00 L 963.80 433.70 L 963.50 436.50 L 962.80 439.00 L 961.70 441.40 L 960.20 443.50 L 958.40 445.30 L 956.20 446.80 L 953.90 448.00 L 951.40 448.70 L 948.60 448.90 Z" fill="#859be9" fill-rule="nonzero" node-id="162" stroke="none" target-height="30.399994" target-width="318.89996" target-x="644.9" target-y="418.5"></path><path d="M 781.50 570.40 L 660.10 570.40 L 657.30 570.10 L 654.80 569.40 L 652.40 568.30 L 650.30 566.80 L 648.50 565.00 L 647.00 562.90 L 645.80 560.50 L 645.10 558.00 L 644.90 555.20 L 645.10 552.40 L 645.80 549.90 L 647.00 547.50 L 648.50 545.40 L 650.30 543.60 L 652.40 542.10 L 654.80 541.00 L 657.30 540.30 L 660.10 540.00 L 781.50 540.00 L 784.30 540.30 L 786.90 541.00 L 789.20 542.10 L 791.30 543.60 L 793.20 545.40 L 794.70 547.50 L 795.80 549.90 L 796.50 552.40 L 796.70 555.20 L 796.50 558.00 L 795.80 560.50 L 794.70 562.90 L 793.20 565.00 L 791.30 566.80 L 789.20 568.30 L 786.90 569.40 L 784.30 570.10 L 781.50 570.40 Z" fill="#d8e5ed" fill-rule="nonzero" node-id="164" stroke="none" target-height="30.400024" target-width="151.79999" target-x="644.9" target-y="540"></path><path d="M 781.50 631.10 L 660.10 631.10 L 657.30 630.90 L 654.80 630.20 L 652.40 629.10 L 650.30 627.60 L 648.50 625.70 L 647.00 623.60 L 645.80 621.30 L 645.10 618.70 L 644.90 615.90 L 645.10 613.20 L 645.80 610.60 L 647.00 608.30 L 648.50 606.10 L 650.30 604.30 L 652.40 602.80 L 654.80 601.70 L 657.30 601.00 L 660.10 600.80 L 781.50 600.80 L 784.30 601.00 L 786.90 601.70 L 789.20 602.80 L 791.30 604.30 L 793.20 606.10 L 794.70 608.30 L 795.80 610.60 L 796.50 613.20 L 796.70 615.90 L 796.50 618.70 L 795.80 621.30 L 794.70 623.60 L 793.20 625.70 L 791.30 627.60 L 789.20 629.10 L 786.90 630.20 L 784.30 630.90 L 781.50 631.10 Z" fill="#d8e5ed" fill-rule="nonzero" node-id="166" stroke="none" target-height="30.299988" target-width="151.79999" target-x="644.9" target-y="600.8"></path><path d="M 781.50 691.90 L 660.10 691.90 L 657.30 691.60 L 654.80 690.90 L 652.40 689.80 L 650.30 688.30 L 648.50 686.50 L 647.00 684.40 L 645.80 682.00 L 645.10 679.50 L 644.90 676.70 L 645.10 673.90 L 645.80 671.40 L 647.00 669.00 L 648.50 666.90 L 650.30 665.10 L 652.40 663.60 L 654.80 662.50 L 657.30 661.80 L 660.10 661.50 L 781.50 661.50 L 784.30 661.80 L 786.90 662.50 L 789.20 663.60 L 791.30 665.10 L 793.20 666.90 L 794.70 669.00 L 795.80 671.40 L 796.50 673.90 L 796.70 676.70 L 796.50 679.50 L 795.80 682.00 L 794.70 684.40 L 793.20 686.50 L 791.30 688.30 L 789.20 689.80 L 786.90 690.90 L 784.30 691.60 L 781.50 691.90 Z" fill="#d8e5ed" fill-rule="nonzero" node-id="168" stroke="none" target-height="30.400024" target-width="151.79999" target-x="644.9" target-y="661.5"></path><path d="M 963.80 570.40 L 842.30 570.40 L 839.50 570.10 L 837.00 569.40 L 834.60 568.30 L 832.50 566.80 L 830.70 565.00 L 829.20 562.90 L 828.00 560.50 L 827.40 558.00 L 827.10 555.20 L 827.40 552.40 L 828.00 549.90 L 829.20 547.50 L 830.70 545.40 L 832.50 543.60 L 834.60 542.10 L 837.00 541.00 L 839.50 540.30 L 842.30 540.00 L 963.80 540.00 L 966.50 540.30 L 969.10 541.00 L 971.40 542.10 L 973.60 543.60 L 975.40 545.40 L 976.90 547.50 L 978.00 549.90 L 978.70 552.40 L 978.90 555.20 L 978.70 558.00 L 978.00 560.50 L 976.90 562.90 L 975.40 565.00 L 973.60 566.80 L 971.40 568.30 L 969.10 569.40 L 966.50 570.10 L 963.80 570.40 Z" fill="#d8e5ed" fill-rule="nonzero" node-id="170" stroke="none" target-height="30.400024" target-width="151.80005" target-x="827.1" target-y="540"></path><path d="M 963.80 631.10 L 842.30 631.10 L 839.50 630.90 L 837.00 630.20 L 834.60 629.10 L 832.50 627.60 L 830.70 625.70 L 829.20 623.60 L 828.00 621.30 L 827.40 618.70 L 827.10 615.90 L 827.40 613.20 L 828.00 610.60 L 829.20 608.30 L 830.70 606.10 L 832.50 604.30 L 834.60 602.80 L 837.00 601.70 L 839.50 601.00 L 842.30 600.80 L 963.80 600.80 L 966.50 601.00 L 969.10 601.70 L 971.40 602.80 L 973.60 604.30 L 975.40 606.10 L 976.90 608.30 L 978.00 610.60 L 978.70 613.20 L 978.90 615.90 L 978.70 618.70 L 978.00 621.30 L 976.90 623.60 L 975.40 625.70 L 973.60 627.60 L 971.40 629.10 L 969.10 630.20 L 966.50 630.90 L 963.80 631.10 Z" fill="#d8e5ed" fill-rule="nonzero" node-id="172" stroke="none" target-height="30.299988" target-width="151.80005" target-x="827.1" target-y="600.8"></path><path d="M 963.80 691.90 L 842.30 691.90 L 839.50 691.60 L 837.00 690.90 L 834.60 689.80 L 832.50 688.30 L 830.70 686.50 L 829.20 684.40 L 828.00 682.00 L 827.40 679.50 L 827.10 676.70 L 827.40 673.90 L 828.00 671.40 L 829.20 669.00 L 830.70 666.90 L 832.50 665.10 L 834.60 663.60 L 837.00 662.40 L 839.50 661.80 L 842.30 661.50 L 963.80 661.50 L 966.50 661.80 L 969.10 662.40 L 971.40 663.60 L 973.60 665.10 L 975.40 666.90 L 976.90 669.00 L 978.00 671.40 L 978.70 673.90 L 978.90 676.70 L 978.70 679.50 L 978.00 682.00 L 976.90 684.40 L 975.40 686.50 L 973.60 688.30 L 971.40 689.80 L 969.10 690.90 L 966.50 691.60 L 963.80 691.90 Z" fill="#d8e5ed" fill-rule="nonzero" node-id="174" stroke="none" target-height="30.400024" target-width="151.80005" target-x="827.1" target-y="661.5"></path><path d="M 857.50 509.70 L 660.10 509.70 L 657.30 509.40 L 654.80 508.70 L 652.40 507.60 L 650.30 506.10 L 648.50 504.30 L 647.00 502.10 L 645.80 499.80 L 645.10 497.20 L 644.90 494.50 L 645.10 491.70 L 645.80 489.20 L 647.00 486.80 L 648.50 484.70 L 650.30 482.90 L 652.40 481.40 L 654.80 480.20 L 657.30 479.50 L 660.10 479.30 L 857.50 479.30 L 860.20 479.50 L 862.80 480.20 L 865.10 481.40 L 867.30 482.90 L 869.10 484.70 L 870.60 486.80 L 871.70 489.20 L 872.40 491.70 L 872.70 494.50 L 872.40 497.20 L 871.70 499.80 L 870.60 502.10 L 869.10 504.30 L 867.30 506.10 L 865.10 507.60 L 862.80 508.70 L 860.20 509.40 L 857.50 509.70 Z" fill="#b69cf8" fill-rule="nonzero" node-id="176" stroke="none" target-height="30.400024" target-width="227.79999" target-x="644.9" target-y="479.3"></path><path d="M 584.20 828.50 L 705.60 828.50 L 709.80 828.20 L 713.70 827.40 L 717.50 826.10 L 721.00 824.40 L 724.20 822.20 L 727.10 819.60 L 729.70 816.70 L 731.80 813.50 L 733.60 810.00 L 734.90 806.30 L 735.70 802.30 L 736.00 798.20 L 553.80 798.20 L 554.10 802.30 L 554.90 806.30 L 556.20 810.00 L 557.90 813.50 L 560.10 816.70 L 562.70 819.60 L 565.60 822.20 L 568.80 824.40 L 572.30 826.10 L 576.10 827.40 L 580.00 828.20 L 584.20 828.50 Z" fill="#859be9" fill-rule="nonzero" node-id="178" stroke="none" target-height="30.299988" target-width="182.20001" target-x="553.8" target-y="798.2"></path><path d="M 186.10 1024.00 L 197.10 1023.70 L 207.90 1022.70 L 218.40 1021.20 L 228.80 1019.10 L 239.00 1016.40 L 248.90 1013.10 L 258.50 1009.40 L 267.90 1005.10 L 277.10 1000.30 L 285.90 995.00 L 294.30 989.30 L 302.50 983.10 L 310.30 976.50 L 317.70 969.50 L 324.70 962.10 L 331.30 954.30 L 337.50 946.20 L 343.20 937.70 L 348.40 928.90 L 353.30 919.80 L 357.50 910.40 L 361.30 900.70 L 364.50 890.80 L 367.30 880.60 L 369.40 870.30 L 370.90 859.70 L 371.80 848.90 L 372.20 837.90 L 371.80 826.90 L 370.90 816.10 L 369.40 805.60 L 367.30 795.20 L 364.50 785.00 L 361.30 775.10 L 357.50 765.50 L 353.30 756.10 L 348.40 746.90 L 343.20 738.10 L 337.50 729.70 L 331.30 721.50 L 324.70 713.70 L 317.70 706.30 L 310.30 699.30 L 302.50 692.70 L 294.30 686.50 L 285.90 680.80 L 277.10 675.60 L 267.90 670.70 L 258.50 666.50 L 248.90 662.70 L 239.00 659.50 L 228.80 656.70 L 218.40 654.60 L 207.90 653.10 L 197.10 652.20 L 186.10 651.80 L 175.10 652.20 L 164.30 653.10 L 153.70 654.60 L 143.40 656.70 L 133.20 659.50 L 123.30 662.70 L 113.60 666.50 L 104.20 670.70 L 95.10 675.60 L 86.30 680.80 L 77.80 686.50 L 69.70 692.70 L 61.90 699.30 L 54.50 706.30 L 47.50 713.70 L 40.90 721.50 L 34.70 729.70 L 29.00 738.10 L 23.70 746.90 L 18.90 756.10 L 14.60 765.50 L 10.90 775.10 L 7.60 785.00 L 4.90 795.20 L 2.80 805.60 L 1.30 816.10 L 0.30 826.90 L 0.00 837.90 L 0.30 848.90 L 1.30 859.70 L 2.80 870.30 L 4.90 880.60 L 7.60 890.80 L 10.90 900.70 L 14.60 910.40 L 18.90 919.80 L 23.70 928.90 L 29.00 937.70 L 34.70 946.20 L 40.90 954.30 L 47.50 962.10 L 54.50 969.50 L 61.90 976.50 L 69.70 983.10 L 77.80 989.30 L 86.30 995.00 L 95.10 1000.30 L 104.20 1005.10 L 113.60 1009.40 L 123.30 1013.10 L 133.20 1016.40 L 143.40 1019.10 L 153.70 1021.20 L 164.30 1022.70 L 175.10 1023.70 L 186.10 1024.00 Z" fill="url(#paint1_linear_1608_18892)" fill-rule="nonzero" node-id="180" stroke="none" target-height="372.2" target-width="372.2" target-x="0" target-y="651.8"></path><path d="M 230.10 842.40 L 185.80 842.30 L 182.40 841.00 L 180.90 839.90 L 178.60 837.20 L 177.30 833.80 L 177.20 831.80 L 177.30 787.50 L 178.60 784.10 L 180.90 781.30 L 184.00 779.50 L 187.80 778.80 L 191.50 779.50 L 194.60 781.30 L 196.90 784.10 L 198.20 787.50 L 198.40 821.20 L 232.10 821.40 L 235.50 822.70 L 238.20 825.00 L 239.30 826.50 L 240.60 829.90 L 240.70 831.80 L 240.60 833.80 L 239.30 837.20 L 238.20 838.70 L 235.50 841.00 L 232.10 842.30 L 230.10 842.40 M 187.80 725.80 L 180.70 726.10 L 173.80 726.80 L 167.20 727.80 L 160.60 729.30 L 154.30 731.30 L 146.50 734.20 L 139.10 737.70 L 132.00 741.70 L 125.20 746.30 L 118.80 751.40 L 112.80 756.90 L 107.30 762.90 L 102.20 769.30 L 97.70 776.00 L 93.60 783.10 L 90.10 790.60 L 87.20 798.40 L 85.30 804.70 L 83.80 811.20 L 82.70 817.90 L 82.00 824.80 L 81.80 831.80 L 82.00 838.90 L 82.70 845.70 L 83.80 852.40 L 85.30 858.90 L 87.20 865.30 L 90.10 873.10 L 93.60 880.50 L 97.70 887.60 L 102.20 894.40 L 107.30 900.80 L 112.80 906.70 L 118.80 912.30 L 125.20 917.30 L 132.00 921.90 L 139.10 926.00 L 146.50 929.50 L 154.30 932.40 L 160.60 934.30 L 167.20 935.80 L 173.80 936.90 L 180.70 937.60 L 187.80 937.80 L 194.80 937.60 L 201.70 936.90 L 208.30 935.80 L 214.90 934.30 L 221.20 932.40 L 229.00 929.50 L 236.50 926.00 L 243.50 921.90 L 250.30 917.30 L 256.70 912.30 L 262.70 906.70 L 268.20 900.80 L 273.30 894.40 L 277.80 887.60 L 281.90 880.50 L 285.40 873.10 L 288.30 865.30 L 290.20 858.90 L 291.70 852.40 L 292.80 845.70 L 293.50 838.90 L 293.70 831.80 L 293.50 824.80 L 292.80 817.90 L 291.70 811.20 L 290.20 804.70 L 288.30 798.40 L 285.40 790.60 L 281.90 783.10 L 277.80 776.00 L 273.30 769.30 L 268.20 762.90 L 262.70 756.90 L 256.70 751.40 L 250.30 746.30 L 243.50 741.70 L 236.50 737.70 L 229.00 734.20 L 221.20 731.30 L 214.90 729.30 L 208.30 727.80 L 201.70 726.80 L 194.80 726.10 L 187.80 725.80" fill="#fffffd" fill-rule="evenodd" node-id="182" stroke="none" target-height="212" target-width="211.90001" target-x="81.8" target-y="725.8"></path></svg>