<?xml version="1.0" standalone="no"?><!DOCTYPE svg PUBLIC "-//W3C//DTD SVG 1.1//EN" "http://www.w3.org/Graphics/SVG/1.1/DTD/svg11.dtd"><svg height="480" node-id="1" sillyvg="true" template-height="480" template-width="480" version="1.1" viewBox="0 0 480 480" width="480" xmlns="http://www.w3.org/2000/svg" xmlns:xlink="http://www.w3.org/1999/xlink"><defs node-id="49"><linearGradient gradientUnits="objectBoundingBox" id="linearGradient-2" node-id="9" spreadMethod="pad" x1="0" x2="1" y1="0.5" y2="0.5"><stop offset="0" stop-color="#fff2e6"></stop><stop offset="1" stop-color="#ffd9c3"></stop></linearGradient><linearGradient gradientUnits="objectBoundingBox" id="linearGradient-7" node-id="22" spreadMethod="pad" x1="0" x2="1" y1="1" y2="1"><stop offset="0" stop-color="#1eaefb"></stop><stop offset="1" stop-color="#4169fc"></stop></linearGradient><linearGradient gradientUnits="objectBoundingBox" id="linearGradient-8" node-id="25" spreadMethod="pad" x1="0" x2="0.6361689" y1="0.38835678" y2="0.5"><stop offset="0" stop-color="#b2dfff"></stop><stop offset="1" stop-color="#406afb"></stop></linearGradient><filter height="56" id="filter-1" node-id="7" width="268.957" x="29.911001" y="258"><feGaussianBlur color-interpolation-filters="linearRGB" in="SourceGraphic" result="result1" stdDeviation="8 8"></feGaussianBlur></filter><filter height="121.01701" id="filter-4" node-id="13" width="296.06003" x="38.97" y="123.037"><feOffset color-interpolation-filters="linearRGB" dx="0" dy="4" in="SourceAlpha" result="shadowOffsetOuter1"></feOffset><feGaussianBlur color-interpolation-filters="linearRGB" in="shadowOffsetOuter1" result="shadowBlurOuter1" stdDeviation="5 5"></feGaussianBlur><feColorMatrix color-interpolation-filters="linearRGB" in="shadowBlurOuter1" result="result3" type="matrix" values="0 0 0 0 0 0 0 0 0 0 0 0 0 0 0 0 0 0 0.12262347 0"></feColorMatrix></filter><filter height="107.01599" id="filter-6" node-id="18" width="137.98201" x="36.947998" y="43.996"><feOffset color-interpolation-filters="linearRGB" dx="0" dy="4" in="SourceAlpha" result="shadowOffsetOuter1"></feOffset><feGaussianBlur color-interpolation-filters="linearRGB" in="shadowOffsetOuter1" result="shadowBlurOuter1" stdDeviation="2 2"></feGaussianBlur><feColorMatrix color-interpolation-filters="linearRGB" in="shadowBlurOuter1" result="result3" type="matrix" values="0 0 0 0 0.5921569 0 0 0 0 0.75686276 0 0 0 0 0.9647059 0 0 0 1 0"></feColorMatrix></filter></defs><g node-id="126"><g node-id="127"><g node-id="128"><path d="M 132.00 95.00 L 359.80 95.20 L 363.00 96.40 L 365.60 98.50 L 367.40 101.50 L 368.00 105.00 L 367.80 110.80 L 366.60 114.00 L 365.60 115.50 L 363.00 117.60 L 359.80 118.80 L 130.20 118.80 L 127.00 117.60 L 125.50 116.60 L 123.40 114.00 L 122.20 110.80 L 122.00 105.00 L 122.60 101.50 L 124.40 98.50 L 127.00 96.40 L 128.50 95.60 L 132.00 95.00 Z" fill="#eeeeee" fill-rule="evenodd" group-id="1,2,3" id="矩形" node-id="32" stroke="none" target-height="23.800003" target-width="246" target-x="122" target-y="95"></path><path d="M 104.00 144.00 L 376.00 144.00 L 379.50 144.60 L 381.00 145.40 L 383.60 147.50 L 385.40 150.50 L 386.00 154.00 L 385.80 158.80 L 385.40 160.50 L 383.60 163.50 L 381.00 165.60 L 379.50 166.40 L 376.00 167.00 L 104.00 167.00 L 100.50 166.40 L 99.00 165.60 L 96.40 163.50 L 94.60 160.50 L 94.00 157.00 L 94.20 152.20 L 94.60 150.50 L 96.40 147.50 L 99.00 145.40 L 100.50 144.60 L 104.00 144.00 Z" fill="#eeeeee" fill-rule="evenodd" group-id="1,2,3" id="矩形备份" node-id="33" stroke="none" target-height="23" target-width="292" target-x="94" target-y="144"></path><path d="M 106.00 247.00 L 377.00 247.00 L 380.50 247.60 L 382.00 248.40 L 384.60 250.50 L 386.40 253.50 L 387.00 257.00 L 386.80 261.80 L 385.60 265.00 L 384.60 266.50 L 382.00 268.60 L 378.80 269.80 L 106.00 270.00 L 102.50 269.40 L 101.00 268.60 L 98.40 266.50 L 96.60 263.50 L 96.00 260.00 L 96.20 255.20 L 96.60 253.50 L 98.40 250.50 L 101.00 248.40 L 102.50 247.60 L 106.00 247.00 Z" fill="#eeeeee" fill-rule="evenodd" group-id="1,2,3" id="矩形备份-2" node-id="34" stroke="none" target-height="23" target-width="291" target-x="96" target-y="247"></path><path d="M 85.00 194.00 L 394.00 194.00 L 397.50 194.60 L 399.00 195.40 L 401.60 197.50 L 403.40 200.50 L 404.00 204.00 L 403.80 208.80 L 402.60 212.00 L 400.50 214.60 L 399.00 215.60 L 395.80 216.80 L 85.00 217.00 L 81.50 216.40 L 80.00 215.60 L 77.40 213.50 L 75.60 210.50 L 75.00 207.00 L 75.20 202.20 L 75.60 200.50 L 77.40 197.50 L 80.00 195.40 L 81.50 194.60 L 85.00 194.00 Z" fill="#eeeeee" fill-rule="evenodd" group-id="1,2,3" id="矩形备份-3" node-id="35" stroke="none" target-height="23" target-width="329" target-x="75" target-y="194"></path><path d="M 132.00 296.00 L 348.80 296.20 L 352.00 297.40 L 353.50 298.40 L 355.60 301.00 L 356.80 304.20 L 357.00 310.00 L 356.40 313.50 L 354.60 316.50 L 352.00 318.60 L 350.50 319.40 L 347.00 320.00 L 130.20 319.80 L 127.00 318.60 L 124.40 316.50 L 123.40 315.00 L 122.20 311.80 L 122.00 306.00 L 122.60 302.50 L 123.40 301.00 L 125.50 298.40 L 128.50 296.60 L 132.00 296.00 Z" fill="#eeeeee" fill-rule="evenodd" group-id="1,2,3" id="矩形备份-5" node-id="36" stroke="none" target-height="24" target-width="235" target-x="122" target-y="296"></path><g node-id="131"><path d="M 350.00 381.00 L 348.30 381.70 L 344.40 382.30 L 328.70 383.40 L 304.80 384.20 L 274.40 384.80 L 239.50 385.00 L 204.60 384.80 L 174.20 384.20 L 140.80 382.80 L 134.60 382.30 L 129.30 381.30 L 129.00 381.00 L 129.30 380.70 L 130.70 380.30 L 134.60 379.70 L 150.30 378.60 L 174.20 377.80 L 204.60 377.20 L 239.50 377.00 L 274.40 377.20 L 304.80 377.80 L 328.70 378.60 L 344.40 379.70 L 348.30 380.30 L 350.00 381.00 Z" fill="#3d3d3d" fill-opacity="0.4" fill-rule="evenodd" filter="url(#filter-1)" group-id="1,2,3,6" id="椭圆形" node-id="37" stroke="none" target-height="8" target-width="221" target-x="129" target-y="377"></path></g></g><g node-id="129"><g node-id="132"><path d="M 290.10 245.80 L 393.00 259.60 L 280.70 318.00 L 280.70 292.50 L 131.00 299.50 L 153.00 231.00 L 280.70 259.60 Z" fill="#000000" fill-rule="evenodd" filter="url(#filter-4)" group-id="1,2,4,7" node-id="107" stroke="none" target-height="87" target-width="262" target-x="131" target-y="231"></path></g><path d="M 290.10 245.80 L 393.00 259.60 L 280.70 318.00 L 280.70 292.50 L 131.00 299.50 L 153.00 231.00 L 280.70 259.60 Z" fill="url(#linearGradient-2)" fill-rule="evenodd" group-id="1,2,4,8" node-id="112" stroke="none" target-height="87" target-width="262" target-x="131" target-y="231"></path></g><g node-id="130"><g node-id="134"><path d="M 128.00 143.00 L 234.00 143.00 L 236.10 143.30 L 238.00 144.10 L 239.70 145.30 L 240.90 147.00 L 241.70 148.90 L 242.00 151.00 L 242.00 226.00 L 241.70 228.10 L 240.90 230.00 L 239.70 231.70 L 238.00 232.90 L 236.10 233.70 L 234.00 234.00 L 128.00 234.00 L 125.90 233.70 L 124.00 232.90 L 122.30 231.70 L 121.10 230.00 L 120.30 228.10 L 120.00 226.00 L 120.00 151.00 L 120.30 148.90 L 121.10 147.00 L 122.30 145.30 L 124.00 144.10 L 125.90 143.30 L 128.00 143.00 Z" fill="#000000" fill-rule="evenodd" filter="url(#filter-6)" group-id="1,2,5,9" node-id="119" stroke="none" target-height="91" target-width="122" target-x="120" target-y="143"></path></g><path d="M 128.00 143.00 L 234.00 143.00 L 236.10 143.30 L 238.00 144.10 L 239.70 145.30 L 240.90 147.00 L 241.70 148.90 L 242.00 151.00 L 242.00 226.00 L 241.70 228.10 L 240.90 230.00 L 239.70 231.70 L 238.00 232.90 L 236.10 233.70 L 234.00 234.00 L 128.00 234.00 L 125.90 233.70 L 124.00 232.90 L 122.30 231.70 L 121.10 230.00 L 120.30 228.10 L 120.00 226.00 L 120.00 151.00 L 120.30 148.90 L 121.10 147.00 L 122.30 145.30 L 124.00 144.10 L 125.90 143.30 L 128.00 143.00 Z" fill="#b2dfff" fill-rule="evenodd" group-id="1,2,5,10" node-id="124" stroke="none" target-height="91" target-width="122" target-x="120" target-y="143"></path></g><path d="M 151.00 164.00 L 283.00 164.00 L 285.10 164.30 L 287.00 165.10 L 288.70 166.30 L 289.90 168.00 L 290.70 169.90 L 291.00 172.00 L 291.00 267.00 L 290.70 269.10 L 289.90 271.00 L 288.70 272.70 L 287.00 273.90 L 285.10 274.70 L 283.00 275.00 L 151.00 275.00 L 148.90 274.70 L 147.00 273.90 L 145.30 272.70 L 144.10 271.00 L 143.30 269.10 L 143.00 267.00 L 143.00 172.00 L 143.30 169.90 L 144.10 168.00 L 145.30 166.30 L 147.00 165.10 L 148.90 164.30 L 151.00 164.00 Z" fill="url(#linearGradient-7)" fill-rule="evenodd" group-id="1,2" id="矩形" node-id="44" stroke="none" target-height="111" target-width="148" target-x="143" target-y="164"></path><path d="M 298.00 262.00 L 297.70 265.80 L 297.00 269.50 L 295.80 272.90 L 294.20 276.10 L 292.20 279.10 L 289.80 281.80 L 287.10 284.20 L 284.10 286.20 L 280.90 287.80 L 277.50 289.00 L 273.80 289.70 L 270.00 290.00 L 266.20 289.70 L 262.50 289.00 L 259.10 287.80 L 255.90 286.20 L 252.90 284.20 L 250.20 281.80 L 247.80 279.10 L 245.80 276.10 L 244.20 272.90 L 243.00 269.50 L 242.30 265.80 L 242.00 262.00 L 242.30 258.20 L 243.00 254.50 L 244.20 251.10 L 245.80 247.90 L 247.80 244.90 L 250.20 242.20 L 252.90 239.80 L 255.90 237.80 L 259.10 236.20 L 262.50 235.00 L 266.20 234.30 L 270.00 234.00 L 273.80 234.30 L 277.50 235.00 L 280.90 236.20 L 284.10 237.80 L 287.10 239.80 L 289.80 242.20 L 292.20 244.90 L 294.20 247.90 L 295.80 251.10 L 297.00 254.50 L 297.70 258.20 L 298.00 262.00 Z" fill="url(#linearGradient-8)" fill-rule="evenodd" group-id="1,2" id="椭圆形" node-id="45" stroke="none" target-height="56" target-width="56" target-x="242" target-y="234"></path><path d="M 213.00 241.00 L 214.60 241.30 L 215.80 242.20 L 216.70 243.40 L 217.00 245.00 L 216.70 247.60 L 215.80 248.80 L 214.60 249.70 L 213.00 250.00 L 173.00 250.00 L 171.40 249.70 L 170.20 248.80 L 169.30 247.60 L 169.00 246.00 L 169.30 243.40 L 170.20 242.20 L 171.40 241.30 L 173.00 241.00 L 213.00 241.00 Z M 234.00 214.00 L 235.60 214.30 L 236.80 215.20 L 237.70 216.40 L 238.00 218.00 L 237.70 220.60 L 236.80 221.80 L 235.60 222.70 L 234.00 223.00 L 173.00 223.00 L 171.40 222.70 L 170.20 221.80 L 169.30 220.60 L 169.00 219.00 L 169.30 216.40 L 170.20 215.20 L 171.40 214.30 L 173.00 214.00 L 234.00 214.00 Z M 249.00 189.00 L 250.60 189.30 L 251.80 190.20 L 252.70 191.40 L 253.00 193.00 L 252.70 195.60 L 251.80 196.80 L 250.60 197.70 L 249.00 198.00 L 173.00 198.00 L 171.40 197.70 L 170.20 196.80 L 169.30 195.60 L 169.00 194.00 L 169.30 191.40 L 170.20 190.20 L 171.40 189.30 L 173.00 189.00 L 249.00 189.00 Z" fill="#b2dfff" fill-rule="evenodd" group-id="1,2" id="形状结合" node-id="46" stroke="none" target-height="61" target-width="84" target-x="169" target-y="189"></path><path d="M 256.00 261.50 L 265.50 267.30 L 278.90 254.90 L 284.10 251.00 L 284.80 251.70 L 285.20 252.40 L 281.20 256.80 L 275.50 264.40 L 267.30 277.10 L 254.00 263.80 L 256.00 261.50 Z" fill="#ffffff" fill-rule="evenodd" group-id="1,2" id="路径" node-id="47" stroke="none" target-height="26.100006" target-width="31.200012" target-x="254" target-y="251"></path></g></g></svg>