<?xml version="1.0" standalone="no"?><!DOCTYPE svg PUBLIC "-//W3C//DTD SVG 1.1//EN" "http://www.w3.org/Graphics/SVG/1.1/DTD/svg11.dtd"><svg height="300" node-id="1" sillyvg="true" template-height="300" template-width="300" version="1.1" viewBox="0 0 300 300" width="300" xmlns="http://www.w3.org/2000/svg" xmlns:xlink="http://www.w3.org/1999/xlink"><defs node-id="121"><linearGradient gradientUnits="objectBoundingBox" id="SVGID_1_" node-id="6" spreadMethod="pad" x1="55.4063" x2="55.4063" y1="521.75" y2="428.125"><stop offset="0" stop-color="#ffffff"></stop><stop offset="1" stop-color="#cff4ee"></stop></linearGradient><linearGradient gradientUnits="objectBoundingBox" id="SVGID_2_" node-id="10" spreadMethod="pad" x1="76.5938" x2="76.5938" y1="513.5" y2="407.625"><stop offset="0" stop-color="#ffffff"></stop><stop offset="1" stop-color="#cff4ee"></stop></linearGradient><linearGradient gradientUnits="objectBoundingBox" id="SVGID_3_" node-id="15" spreadMethod="pad" x1="218.0625" x2="218.0625" y1="501.3125" y2="428.8125"><stop offset="0" stop-color="#ffffff"></stop><stop offset="1" stop-color="#cff4ee"></stop></linearGradient><linearGradient gradientUnits="objectBoundingBox" id="SVGID_4_" node-id="19" spreadMethod="pad" x1="238.9375" x2="238.9375" y1="501.25" y2="416.625"><stop offset="0" stop-color="#ffffff"></stop><stop offset="1" stop-color="#cff4ee"></stop></linearGradient><linearGradient gradientUnits="objectBoundingBox" id="SVGID_5_" node-id="23" spreadMethod="pad" x1="259.9375" x2="259.9375" y1="507.75" y2="440.125"><stop offset="0" stop-color="#ffffff"></stop><stop offset="1" stop-color="#cff4ee"></stop></linearGradient><linearGradient gradientUnits="objectBoundingBox" id="SVGID_6_" node-id="27" spreadMethod="pad" x1="150" x2="150" y1="672.375" y2="532.375"><stop offset="0" stop-color="#ffffff" stop-opacity="0.2"></stop><stop offset="1" stop-color="#defffd"></stop></linearGradient><linearGradient gradientUnits="objectBoundingBox" id="SVGID_7_" node-id="31" spreadMethod="pad" x1="25.1875" x2="25.1875" y1="617.625" y2="581.625"><stop offset="0" stop-color="#f0fffa"></stop><stop offset="1" stop-color="#72c2ba" stop-opacity="0.3"></stop></linearGradient><linearGradient gradientUnits="objectBoundingBox" id="SVGID_8_" node-id="35" spreadMethod="pad" x1="44.6563" x2="44.6563" y1="579.625" y2="553.625"><stop offset="0" stop-color="#f0fffa"></stop><stop offset="1" stop-color="#bdefe3"></stop></linearGradient><linearGradient gradientUnits="objectBoundingBox" id="SVGID_9_" node-id="39" spreadMethod="pad" x1="177.3499" x2="164.4626" y1="645.6693" y2="572.5807"><stop offset="0" stop-color="#ffffff" stop-opacity="0"></stop><stop offset="1" stop-color="#bdefe3"></stop></linearGradient><linearGradient gradientUnits="objectBoundingBox" id="SVGID_10_" node-id="44" spreadMethod="pad" x1="251.8956" x2="251.8956" y1="542.1396" y2="507.6457"><stop offset="0" stop-color="#ffffff" stop-opacity="0"></stop><stop offset="1" stop-color="#cff4ee"></stop></linearGradient><linearGradient gradientUnits="objectBoundingBox" id="SVGID_11_" node-id="48" spreadMethod="pad" x1="228.8247" x2="228.8247" y1="544.1578" y2="493.6875"><stop offset="0" stop-color="#ffffff" stop-opacity="0"></stop><stop offset="1" stop-color="#cff4ee"></stop></linearGradient><linearGradient gradientUnits="objectBoundingBox" id="SVGID_12_" node-id="53" spreadMethod="pad" x1="37.3116" x2="37.3116" y1="550.127" y2="510.7566"><stop offset="0" stop-color="#ffffff" stop-opacity="0"></stop><stop offset="1" stop-color="#cff4ee"></stop></linearGradient><linearGradient gradientUnits="objectBoundingBox" id="SVGID_13_" node-id="57" spreadMethod="pad" x1="23.8516" x2="23.8516" y1="533.1373" y2="504.9861"><stop offset="0" stop-color="#ffffff" stop-opacity="0"></stop><stop offset="1" stop-color="#cff4ee"></stop></linearGradient><linearGradient gradientUnits="objectBoundingBox" id="SVGID_14_" node-id="61" spreadMethod="pad" x1="62.8247" x2="62.8247" y1="550.1578" y2="499.6214"><stop offset="0" stop-color="#ffffff" stop-opacity="0"></stop><stop offset="1" stop-color="#cff4ee"></stop></linearGradient><linearGradient gradientUnits="objectBoundingBox" id="SVGID_15_" node-id="65" spreadMethod="pad" x1="269.3798" x2="269.3798" y1="608.625" y2="576.625"><stop offset="0" stop-color="#f0fffa"></stop><stop offset="1" stop-color="#72c2ba" stop-opacity="0.3"></stop></linearGradient><linearGradient gradientUnits="objectBoundingBox" id="SVGID_16_" node-id="69" spreadMethod="pad" x1="-99.3318" x2="-99.3318" y1="-1262.638" y2="-1269.3611"><stop offset="0" stop-color="#ffffff"></stop><stop offset="1" stop-color="#cff4ee"></stop></linearGradient><linearGradient gradientUnits="objectBoundingBox" id="SVGID_17_" node-id="73" spreadMethod="pad" x1="196.2219" x2="196.2219" y1="-325.1248" y2="-334.0546"><stop offset="0" stop-color="#ffffff"></stop><stop offset="1" stop-color="#cff4ee"></stop></linearGradient><linearGradient gradientUnits="objectBoundingBox" id="SVGID_18_" node-id="77" spreadMethod="pad" x1="234.6466" x2="234.6466" y1="-334.3982" y2="-339.0597"><stop offset="0" stop-color="#ffffff"></stop><stop offset="1" stop-color="#cff4ee"></stop></linearGradient><linearGradient gradientUnits="objectBoundingBox" id="SVGID_19_" node-id="81" spreadMethod="pad" x1="-24.4191" x2="-24.4191" y1="818.9651" y2="812.815"><stop offset="0" stop-color="#ffffff"></stop><stop offset="1" stop-color="#cff4ee"></stop></linearGradient><linearGradient gradientUnits="objectBoundingBox" id="SVGID_20_" node-id="85" spreadMethod="pad" x1="252.3226" x2="252.3226" y1="-202.5469" y2="-212.9468"><stop offset="0" stop-color="#f0fffa"></stop><stop offset="1" stop-color="#72c2ba" stop-opacity="0.3"></stop></linearGradient><linearGradient gradientUnits="objectBoundingBox" id="SVGID_21_" node-id="89" spreadMethod="pad" x1="-84.1361" x2="-84.1361" y1="917.881" y2="910.0787"><stop offset="0" stop-color="#58ccb0"></stop><stop offset="0.9851" stop-color="#e5f9f4"></stop></linearGradient><linearGradient gradientUnits="objectBoundingBox" id="SVGID_22_" node-id="93" spreadMethod="pad" x1="-594.2943" x2="-594.2943" y1="-1433.9921" y2="-1439.789"><stop offset="0" stop-color="#58ccb0"></stop><stop offset="0.9851" stop-color="#e5f9f4"></stop></linearGradient><linearGradient gradientUnits="objectBoundingBox" id="SVGID_23_" node-id="98" spreadMethod="pad" x1="226.4833" x2="226.4833" y1="-455.5556" y2="-432.0667"><stop offset="0" stop-color="#e9fffd"></stop><stop offset="0.9851" stop-color="#63d0b5"></stop></linearGradient><linearGradient gradientUnits="objectBoundingBox" id="SVGID_24_" node-id="102" spreadMethod="pad" x1="235.3357" x2="235.3357" y1="-457.872" y2="-435.3065"><stop offset="0" stop-color="#e9fffd"></stop><stop offset="0.9851" stop-color="#63d0b5"></stop></linearGradient><linearGradient gradientUnits="objectBoundingBox" id="SVGID_25_" node-id="106" spreadMethod="pad" x1="149.5" x2="149.5" y1="198" y2="105"><stop offset="0" stop-color="#58ccb0"></stop><stop offset="0.9851" stop-color="#e5f9f4"></stop></linearGradient><linearGradient gradientUnits="objectBoundingBox" id="SVGID_26_" node-id="115" spreadMethod="pad" x1="203" x2="203" y1="-197.625" y2="-153.625"><stop offset="0" stop-color="#38bf9d"></stop><stop offset="0.9851" stop-color="#d6f2e9"></stop></linearGradient></defs><g node-id="361"><path d="M 44.80 38.10 L 66.00 38.10 L 66.00 131.70 L 44.80 131.70 Z" fill="url(#SVGID_1_)" fill-rule="nonzero" group-id="1" node-id="284" stroke="none" target-height="93.6" target-width="21.2" target-x="44.8" target-y="38.1"></path><path d="M 66.00 17.60 L 87.20 17.60 L 87.20 123.50 L 66.00 123.50 Z" fill="url(#SVGID_2_)" fill-rule="nonzero" group-id="1" node-id="286" stroke="none" target-height="105.9" target-width="21.199997" target-x="66" target-y="17.6"></path></g><g node-id="362"><path d="M 207.60 38.80 L 228.50 38.80 L 228.50 111.30 L 207.60 111.30 Z" fill="url(#SVGID_3_)" fill-rule="nonzero" group-id="2" node-id="291" stroke="none" target-height="72.5" target-width="20.899994" target-x="207.6" target-y="38.8"></path><path d="M 228.50 26.60 L 249.40 26.60 L 249.40 111.20 L 228.50 111.20 Z" fill="url(#SVGID_4_)" fill-rule="nonzero" group-id="2" node-id="293" stroke="none" target-height="84.6" target-width="20.899994" target-x="228.5" target-y="26.6"></path><path d="M 249.50 50.10 L 270.40 50.10 L 270.40 117.70 L 249.50 117.70 Z" fill="url(#SVGID_5_)" fill-rule="nonzero" group-id="2" node-id="295" stroke="none" target-height="67.6" target-width="20.899994" target-x="249.5" target-y="50.1"></path></g><path d="M 300.00 212.40 L 299.80 216.20 L 299.10 220.00 L 298.10 223.70 L 296.60 227.30 L 294.60 231.00 L 291.80 235.20 L 288.40 239.40 L 284.30 243.60 L 279.50 247.70 L 274.60 251.40 L 262.90 258.50 L 256.10 261.90 L 241.90 267.70 L 234.10 270.40 L 225.70 272.80 L 214.50 275.60 L 202.60 278.00 L 189.90 279.90 L 177.10 281.30 L 163.80 282.10 L 150.00 282.40 L 136.20 282.10 L 122.90 281.30 L 110.10 279.90 L 97.40 278.00 L 85.50 275.60 L 74.30 272.80 L 65.90 270.40 L 58.10 267.70 L 43.90 261.90 L 37.10 258.50 L 31.00 255.00 L 25.40 251.40 L 20.50 247.70 L 15.70 243.60 L 11.60 239.40 L 8.20 235.20 L 5.40 231.00 L 3.40 227.30 L 1.90 223.70 L 0.90 220.00 L 0.20 216.20 L 0.00 212.40 L 0.20 208.60 L 0.90 204.80 L 1.90 201.10 L 3.40 197.50 L 5.40 193.80 L 8.20 189.60 L 11.60 185.40 L 15.70 181.20 L 20.50 177.10 L 25.40 173.40 L 31.00 169.80 L 37.10 166.30 L 43.90 162.90 L 58.10 157.10 L 65.90 154.40 L 74.30 152.00 L 85.50 149.20 L 97.40 146.80 L 110.10 144.90 L 122.90 143.50 L 136.20 142.70 L 150.00 142.40 L 163.80 142.70 L 177.10 143.50 L 189.90 144.90 L 202.60 146.80 L 214.50 149.20 L 225.70 152.00 L 234.10 154.40 L 241.90 157.10 L 256.10 162.90 L 262.90 166.30 L 269.00 169.80 L 274.60 173.40 L 279.50 177.10 L 284.30 181.20 L 288.40 185.40 L 291.80 189.60 L 294.60 193.80 L 296.60 197.50 L 298.10 201.10 L 299.10 204.80 L 299.80 208.60 L 300.00 212.40 Z" fill="url(#SVGID_6_)" fill-rule="nonzero" node-id="298" stroke="none" target-height="140" target-width="300" target-x="0" target-y="142.4"></path><path d="M 25.20 191.60 L 12.50 213.60 L 23.30 213.60 L 23.30 227.60 L 27.00 227.60 L 27.00 213.60 L 37.90 213.60 Z" fill="url(#SVGID_7_)" fill-rule="nonzero" node-id="300" stroke="none" target-height="36" target-width="25.400002" target-x="12.5" target-y="191.6"></path><path d="M 44.60 163.60 L 35.50 179.50 L 43.30 179.50 L 43.30 189.60 L 46.00 189.60 L 46.00 179.50 L 53.80 179.50 Z" fill="url(#SVGID_8_)" fill-rule="nonzero" node-id="302" stroke="none" target-height="26" target-width="18.3" target-x="35.5" target-y="163.6"></path><path d="M 84.80 196.60 L 128.00 243.50 L 257.00 241.60 L 211.00 195.60 Z" fill="url(#SVGID_9_)" fill-rule="nonzero" node-id="304" stroke="none" target-height="47.899994" target-width="172.2" target-x="84.8" target-y="195.6"></path><g node-id="363"><path d="M 268.80 146.40 L 265.50 131.00 L 263.10 124.10 L 261.80 121.90 L 258.80 119.10 L 255.10 117.80 L 252.70 117.60 L 251.30 117.80 L 249.80 118.50 L 248.30 119.70 L 246.30 122.00 L 244.20 125.10 L 240.70 132.30 L 237.80 139.70 L 234.90 149.00 L 235.70 149.80 L 237.40 150.40 L 244.00 151.60 L 252.50 152.20 L 257.00 152.10 L 263.50 151.20 L 267.10 149.90 L 268.30 148.90 L 268.80 147.80 L 268.80 146.40 Z" fill="url(#SVGID_10_)" fill-rule="nonzero" group-id="3" node-id="308" stroke="none" target-height="34.6" target-width="33.899994" target-x="234.9" target-y="117.6"></path><path d="M 253.50 145.80 L 248.30 122.20 L 246.80 117.00 L 244.90 112.60 L 243.30 110.00 L 241.40 107.90 L 239.20 106.10 L 236.70 104.80 L 233.70 104.00 L 230.00 103.70 L 227.90 104.10 L 225.80 105.10 L 223.60 106.80 L 219.60 111.60 L 217.60 114.70 L 214.90 119.70 L 210.20 130.80 L 208.30 136.00 L 204.00 149.70 L 204.80 150.70 L 206.60 151.40 L 214.00 153.00 L 218.70 153.50 L 229.70 154.20 L 240.50 153.70 L 247.90 152.20 L 251.80 150.40 L 253.40 148.30 L 253.50 145.80 Z" fill="url(#SVGID_11_)" fill-rule="nonzero" group-id="3" node-id="310" stroke="none" target-height="50.5" target-width="49.5" target-x="204" target-y="103.7"></path></g><g node-id="364"><path d="M 56.50 153.60 L 51.50 136.60 L 48.00 128.90 L 44.70 124.40 L 42.70 122.70 L 40.60 121.50 L 38.20 120.80 L 36.60 120.90 L 35.00 121.40 L 33.30 122.70 L 31.00 125.20 L 28.70 128.70 L 26.60 132.60 L 21.30 145.60 L 18.00 156.60 L 18.90 157.50 L 20.80 158.20 L 28.20 159.50 L 38.00 160.10 L 43.10 160.00 L 50.50 159.10 L 54.60 157.60 L 56.30 155.80 L 56.50 153.60 Z" fill="url(#SVGID_12_)" fill-rule="nonzero" group-id="4" node-id="315" stroke="none" target-height="39.300003" target-width="38.5" target-x="18" target-y="120.8"></path><path d="M 37.60 138.40 L 34.50 127.50 L 33.30 124.20 L 30.50 119.00 L 27.70 116.20 L 24.50 114.90 L 23.10 115.00 L 21.70 115.60 L 20.20 116.90 L 18.30 119.40 L 16.40 122.80 L 13.30 130.30 L 10.00 140.70 L 10.30 141.10 L 12.00 141.80 L 17.40 142.70 L 27.90 143.10 L 34.20 142.10 L 36.20 141.30 L 37.20 140.50 L 37.60 139.50 L 37.60 138.40 Z" fill="url(#SVGID_13_)" fill-rule="nonzero" group-id="4" node-id="317" stroke="none" target-height="28.200005" target-width="27.599998" target-x="10" target-y="114.9"></path><path d="M 87.50 151.80 L 83.30 136.90 L 81.00 129.90 L 78.60 123.90 L 76.60 120.00 L 74.60 116.90 L 72.40 114.30 L 70.50 112.50 L 66.30 110.30 L 64.00 109.70 L 62.40 109.70 L 59.30 110.90 L 55.70 114.10 L 51.70 119.80 L 49.00 124.90 L 46.50 130.50 L 42.30 141.60 L 38.00 155.70 L 38.80 156.70 L 40.60 157.40 L 48.00 159.00 L 52.70 159.50 L 63.70 160.20 L 74.50 159.70 L 81.90 158.20 L 85.80 156.40 L 87.40 154.30 L 87.50 151.80 Z" fill="url(#SVGID_14_)" fill-rule="nonzero" group-id="4" node-id="319" stroke="none" target-height="50.5" target-width="49.5" target-x="38" target-y="109.7"></path></g><path d="M 283.70 196.50 L 283.30 195.50 L 282.60 194.70 L 279.00 192.20 L 274.20 187.70 L 272.00 186.70 L 270.40 186.60 L 268.10 186.90 L 266.60 187.60 L 265.30 188.60 L 262.60 192.50 L 260.40 192.90 L 257.90 194.30 L 256.50 196.00 L 255.60 197.70 L 254.90 200.40 L 255.20 201.50 L 256.40 202.90 L 260.40 205.90 L 262.20 206.80 L 264.30 207.20 L 268.10 207.20 L 268.10 218.60 L 270.90 218.60 L 270.90 207.10 L 274.40 206.60 L 279.10 207.80 L 281.00 207.00 L 282.70 204.90 L 283.40 203.20 L 283.90 199.20 L 283.70 196.50 Z" fill="url(#SVGID_15_)" fill-rule="nonzero" node-id="322" stroke="none" target-height="32" target-width="29" target-x="254.9" target-y="186.6"></path><path d="M 102.50 44.10 L 97.80 37.50 L 96.20 33.10 L 96.20 31.20 L 96.90 29.70 L 98.30 30.20 L 99.40 31.40 L 101.30 34.70 L 102.60 37.70 L 102.90 39.60 L 103.00 41.10 L 102.50 44.10 Z" fill="url(#SVGID_16_)" fill-rule="nonzero" node-id="324" stroke="none" target-height="14.399998" target-width="6.800003" target-x="96.2" target-y="29.7"></path><path d="M 133.10 34.30 L 126.40 30.80 L 121.30 27.00 L 118.90 24.00 L 118.00 21.20 L 118.40 20.20 L 119.20 20.00 L 120.60 20.30 L 123.80 21.90 L 127.10 24.30 L 129.50 26.60 L 131.00 28.70 L 132.60 32.10 L 133.10 34.30 Z" fill="url(#SVGID_17_)" fill-rule="nonzero" node-id="326" stroke="none" target-height="14.299999" target-width="15.100006" target-x="118" target-y="20"></path><path d="M 168.20 37.30 L 163.30 34.60 L 161.00 32.30 L 160.40 31.10 L 160.30 30.10 L 160.70 29.80 L 161.40 29.80 L 164.60 31.80 L 166.30 33.30 L 167.40 34.90 L 168.20 37.30 Z" fill="url(#SVGID_18_)" fill-rule="nonzero" node-id="328" stroke="none" target-height="7.5" target-width="7.899994" target-x="160.3" target-y="29.8"></path><path d="M 136.60 55.90 L 129.20 56.00 L 125.10 55.00 L 123.60 54.10 L 122.80 52.80 L 123.90 52.00 L 128.80 52.00 L 131.70 52.60 L 134.10 53.80 L 136.60 55.90 Z" fill="url(#SVGID_19_)" fill-rule="nonzero" node-id="330" stroke="none" target-height="4" target-width="13.800003" target-x="122.8" target-y="52"></path><path d="M 179.20 75.90 L 171.30 72.10 L 166.30 68.80 L 164.20 67.00 L 162.50 64.90 L 161.40 62.80 L 161.10 61.30 L 161.50 60.10 L 162.40 59.80 L 164.10 60.10 L 167.90 61.90 L 171.80 64.60 L 174.70 67.10 L 176.60 69.50 L 178.60 73.40 L 179.20 75.90 Z" fill="url(#SVGID_20_)" fill-rule="nonzero" node-id="332" stroke="none" target-height="16.100002" target-width="18.09999" target-x="161.1" target-y="59.8"></path><path d="M 48.00 150.40 L 45.10 145.70 L 43.40 144.10 L 41.40 142.70 L 44.40 148.60 L 45.00 152.00 L 44.60 153.30 L 53.40 153.80 L 57.00 154.70 L 48.00 150.40 Z" fill="url(#SVGID_21_)" fill-rule="nonzero" node-id="334" stroke="none" target-height="12" target-width="15.599998" target-x="41.4" target-y="142.7"></path><path d="M 238.60 131.10 L 235.10 133.30 L 232.90 136.00 L 237.30 133.70 L 239.80 133.30 L 240.80 133.60 L 241.10 128.10 L 241.80 124.40 L 238.60 131.10 Z" fill="url(#SVGID_22_)" fill-rule="nonzero" node-id="336" stroke="none" target-height="11.599998" target-width="8.900009" target-x="232.9" target-y="124.4"></path><g node-id="365"><path d="M 228.30 183.50 L 225.60 175.00 L 224.20 171.50 L 222.70 168.40 L 218.60 162.10 L 229.10 174.00 L 231.30 176.90 L 233.90 181.30 L 234.30 183.50 L 234.00 184.60 L 233.00 185.40 L 231.00 185.20 L 228.30 183.50 Z" fill="url(#SVGID_23_)" fill-rule="nonzero" group-id="5" node-id="340" stroke="none" target-height="23.299988" target-width="15.699997" target-x="218.6" target-y="162.1"></path><path d="M 231.10 183.50 L 232.90 177.60 L 235.90 169.90 L 238.50 166.10 L 239.70 165.30 L 235.80 178.30 L 234.50 183.70 L 234.20 185.80 L 234.40 187.40 L 233.40 187.90 L 231.80 187.20 L 231.20 186.30 L 230.90 185.20 L 231.10 183.50 Z" fill="url(#SVGID_24_)" fill-rule="nonzero" group-id="5" node-id="342" stroke="none" target-height="22.59999" target-width="8.800003" target-x="230.9" target-y="165.3"></path></g><path d="M 213.00 198.00 L 86.00 198.00 L 83.50 197.30 L 81.70 195.50 L 81.00 193.00 L 81.00 110.00 L 81.70 107.50 L 83.50 105.70 L 84.60 105.20 L 213.00 105.00 L 215.50 105.70 L 217.30 107.50 L 218.00 110.00 L 218.00 193.00 L 217.80 194.40 L 216.60 196.60 L 214.40 197.80 L 213.00 198.00 Z" fill="url(#SVGID_25_)" fill-rule="nonzero" node-id="345" stroke="none" target-height="93" target-width="137" target-x="81" target-y="105"></path><path d="M 198.40 131.00 L 166.40 131.00 L 165.00 130.40 L 164.40 129.00 L 165.00 127.60 L 166.40 127.00 L 198.40 127.00 L 199.80 127.60 L 200.40 129.00 L 199.80 130.40 L 198.40 131.00 Z" fill="#ffffff" fill-rule="nonzero" node-id="347" stroke="none" target-height="4" target-width="36" target-x="164.4" target-y="127"></path><path d="M 199.50 152.50 L 161.80 152.50 L 160.40 151.90 L 159.80 150.50 L 160.00 149.70 L 161.00 148.70 L 199.50 148.50 L 200.90 149.10 L 201.50 150.50 L 200.90 151.90 L 199.50 152.50 Z" fill="#ffffff" fill-rule="nonzero" node-id="349" stroke="none" target-height="4" target-width="41.699997" target-x="159.8" target-y="148.5"></path><path d="M 200.90 171.50 L 155.50 171.50 L 154.10 170.90 L 153.50 169.50 L 153.70 168.70 L 154.70 167.70 L 200.90 167.50 L 202.30 168.10 L 202.90 169.50 L 202.30 170.90 L 200.90 171.50 Z" fill="#ffffff" fill-rule="nonzero" node-id="351" stroke="none" target-height="4" target-width="49.399994" target-x="153.5" target-y="167.5"></path><path d="M 119.50 129.00 L 121.50 129.30 L 123.30 130.00 L 124.80 131.20 L 126.00 132.70 L 126.70 134.50 L 127.00 136.50 L 126.70 138.50 L 126.00 140.30 L 124.80 141.80 L 123.30 143.00 L 121.50 143.70 L 119.50 144.00 L 117.50 143.70 L 115.70 143.00 L 114.20 141.80 L 113.00 140.30 L 112.30 138.50 L 112.00 136.50 L 112.30 134.50 L 113.00 132.70 L 114.20 131.20 L 115.70 130.00 L 117.50 129.30 L 119.50 129.00 M 119.50 124.00 L 115.10 124.80 L 111.40 127.00 L 108.70 130.20 L 107.80 132.10 L 107.00 136.50 L 107.80 140.90 L 110.00 144.60 L 113.20 147.30 L 117.20 148.80 L 119.50 149.00 L 121.80 148.80 L 123.90 148.20 L 127.60 146.00 L 130.30 142.80 L 131.20 140.90 L 132.00 136.50 L 131.20 132.10 L 129.00 128.40 L 125.80 125.70 L 123.90 124.80 L 119.50 124.00 Z" fill="#ffffff" fill-rule="nonzero" node-id="353" stroke="none" target-height="25" target-width="25" target-x="107" target-y="124"></path><path d="M 97.50 181.00 L 98.40 180.80 L 99.60 179.70 L 100.90 175.80 L 102.20 173.00 L 103.90 170.50 L 105.90 168.20 L 108.30 166.30 L 110.90 164.70 L 113.80 163.50 L 116.80 162.80 L 120.10 162.50 L 123.40 162.80 L 126.40 163.50 L 129.30 164.70 L 131.90 166.30 L 134.30 168.20 L 136.30 170.50 L 138.00 173.10 L 139.30 175.90 L 140.50 179.70 L 141.00 180.40 L 142.70 181.00 L 143.80 180.80 L 144.70 180.10 L 145.20 179.20 L 145.20 178.00 L 144.10 174.20 L 142.50 170.70 L 140.50 167.50 L 137.90 164.60 L 135.00 162.20 L 131.70 160.20 L 128.10 158.70 L 124.30 157.80 L 120.20 157.50 L 116.10 157.80 L 112.30 158.70 L 108.70 160.20 L 105.40 162.20 L 102.50 164.60 L 99.90 167.50 L 97.90 170.70 L 96.30 174.20 L 95.10 179.20 L 95.60 180.10 L 96.40 180.70 L 97.50 181.00 Z" fill="#ffffff" fill-rule="nonzero" node-id="355" stroke="none" target-height="23.5" target-width="50.1" target-x="95.1" target-y="157.5"></path><path d="M 225.00 191.60 L 224.80 194.60 L 223.30 200.20 L 222.00 202.70 L 219.80 205.80 L 217.20 208.40 L 214.10 210.60 L 211.60 211.90 L 206.00 213.40 L 203.00 213.60 L 200.00 213.40 L 194.40 211.90 L 191.90 210.60 L 188.80 208.40 L 186.20 205.80 L 184.00 202.70 L 182.70 200.20 L 181.20 194.60 L 181.00 191.60 L 181.20 188.60 L 182.70 183.00 L 184.00 180.50 L 186.20 177.40 L 188.80 174.80 L 191.90 172.60 L 194.40 171.30 L 200.00 169.80 L 203.00 169.60 L 206.00 169.80 L 211.60 171.30 L 214.10 172.60 L 217.20 174.80 L 219.80 177.40 L 222.00 180.50 L 223.30 183.00 L 224.80 188.60 L 225.00 191.60 Z" fill="url(#SVGID_26_)" fill-rule="nonzero" node-id="357" stroke="none" target-height="44" target-width="44" target-x="181" target-y="169.6"></path><path d="M 217.40 180.70 L 215.90 180.10 L 214.30 180.70 L 197.10 197.90 L 191.00 192.00 L 189.40 191.90 L 188.60 192.40 L 188.00 193.90 L 188.60 195.50 L 195.60 202.50 L 196.30 202.90 L 197.90 203.00 L 198.70 202.50 L 217.40 183.80 L 218.00 182.20 L 217.40 180.70 Z" fill="#ffffff" fill-rule="nonzero" node-id="359" stroke="none" target-height="22.899994" target-width="30" target-x="188" target-y="180.1"></path></svg>